<svg width="141" height="141" viewBox="0 0 141 141" fill="none" xmlns="http://www.w3.org/2000/svg">
<rect width="141" height="141" fill="white"/>
<path d="M69.5 124C100.152 124 125 99.1518 125 68.5C125 37.8482 100.152 13 69.5 13C38.8482 13 14 37.8482 14 68.5C14 99.1518 38.8482 124 69.5 124Z" fill="#34CEFF"/>
<mask id="mask0_611_33675" style="mask-type:luminance" maskUnits="userSpaceOnUse" x="14" y="13" width="111" height="111">
<path d="M69.5 124C100.152 124 125 99.1518 125 68.5C125 37.8482 100.152 13 69.5 13C38.8482 13 14 37.8482 14 68.5C14 99.1518 38.8482 124 69.5 124Z" fill="white"/>
</mask>
<g mask="url(#mask0_611_33675)">
<path d="M105.745 54.2011V51.6584C105.687 51.048 105.5 50.4567 105.198 49.9233C104.896 49.3898 104.484 48.9261 103.99 48.5623C103.99 48.5623 98.9351 45.3366 98.7655 33.1767C98.7655 33.1767 98.3916 16.2754 78.7134 16.2754H69.5498" stroke="#2C343F" stroke-width="0.953962" stroke-linecap="round" stroke-linejoin="round"/>
<path d="M37.4424 54.2011V51.6584C37.5024 51.0478 37.6901 50.4567 37.9933 49.9233C38.2965 49.3899 38.7084 48.9262 39.2023 48.5623C39.2023 48.5623 44.2279 45.3366 44.4173 33.1767C44.4173 33.1767 44.7912 16.2754 64.4645 16.2754H73.6381" stroke="#2C343F" stroke-width="0.953962" stroke-linecap="round" stroke-linejoin="round"/>
<path d="M93.0023 52.5708H56.4177V95.7663H93.0023V52.5708Z" fill="#140600"/>
<path d="M93.8098 91.5829C83.9532 90.4662 79.1022 87.5546 78.2696 87.0161H60.7252C59.8976 87.5546 55.0416 90.4662 45.19 91.5829C45.19 91.5829 26.4091 92.2859 26.9326 126.333C26.9326 126.333 41.0669 132.709 69.4999 132.655C97.918 132.709 112.062 126.333 112.062 126.333C112.591 92.2809 93.8098 91.5829 93.8098 91.5829Z" fill="#F6C6AD"/>
<path d="M45.19 91.5832C45.19 91.5832 26.4091 92.2862 26.9326 126.333C26.9326 126.333 41.0669 132.71 69.4999 132.655C97.918 132.71 112.062 126.333 112.062 126.333C112.591 92.2862 93.8098 91.5832 93.8098 91.5832C93.8098 91.5832 75.5176 90.2819 69.4999 98.0645C69.4999 98.0695 63.6966 88.4921 45.19 91.5832Z" fill="white"/>
<path d="M78.4591 77.5442H60.5408V90.5766H78.4591V77.5442Z" fill="#F6C6AD"/>
<g style="mix-blend-mode:multiply">
<path d="M60.5407 81.2635C60.7402 81.4928 60.9346 81.7271 61.149 81.9465C61.7031 82.529 62.2925 83.0768 62.9139 83.5868L62.9737 83.6316L63.587 84.0654C63.9011 84.2748 64.2201 84.4892 64.5492 84.6836C65.0477 84.9678 65.5114 85.242 66.01 85.4863C66.1695 85.5511 66.6382 85.7455 66.7827 85.7954C67.2813 85.9549 67.75 86.1195 68.2385 86.2491C68.7271 86.3787 69.2357 86.5133 69.7691 86.613C70.1052 86.655 70.4382 86.7182 70.7663 86.8025C71.9721 86.9486 73.1862 87.0152 74.4008 87.0019C74.9243 87.0019 75.4478 87.0019 75.9663 86.9421C76.1308 86.9421 76.9085 86.8125 76.9634 86.8125C77.4585 86.7047 77.9477 86.5716 78.4292 86.4136V77.5442H60.5158V81.2186C60.5906 81.3133 60.6056 81.3133 60.5407 81.2635Z" fill="#D9D9D9"/>
</g>
<path d="M89.8812 53.9921C89.8812 69.4226 80.7575 81.9116 69.5 81.9116C58.2424 81.9116 49.1137 69.3976 49.1137 53.9921C49.1137 38.5865 58.2424 28.8894 69.5 28.8894C80.7575 28.8894 89.8812 38.5615 89.8812 53.9921Z" fill="#F6C6AD"/>
<g style="mix-blend-mode:soft-light" opacity="0.5">
<path d="M58.6313 41.3882C58.6332 41.3517 58.6332 41.3151 58.6313 41.2785C60.0022 39.6276 61.7207 38.2996 63.6641 37.3896C65.6075 36.4795 67.7279 36.0097 69.8738 36.0137C78.6685 36.0137 85.7979 43.5719 85.7979 55.6272C85.7979 63.664 82.6321 70.6787 77.9157 74.4678C77.9356 74.4678 51.2824 71.292 58.6313 41.3882Z" fill="white"/>
</g>
<g style="mix-blend-mode:multiply">
<path d="M66.3241 75.7888C59.3791 71.4114 55.5951 63.9828 54.6328 55.9859C53.7254 48.4775 55.63 40.1665 60.4062 34.2286C62.0946 32.1478 64.1704 30.4141 66.5186 29.1233C56.6719 30.6788 49.1137 39.9471 49.1137 53.9916C49.1137 69.4221 58.2424 81.9111 69.5 81.9111C72.7615 81.8835 75.9365 80.8588 78.5987 78.9746C74.28 79.1704 70.0025 78.0602 66.3241 75.7888Z" fill="#ECECEC"/>
</g>
<path d="M59.8777 87.5203C57.9732 88.5573 53.2618 90.6712 45.2001 91.5835C45.2001 91.5835 26.4192 92.2865 26.9427 126.333C26.9427 126.333 41.0769 132.71 69.51 132.655C97.928 132.71 112.072 126.333 112.072 126.333C112.601 92.2865 93.8199 91.5835 93.8199 91.5835C85.7531 90.6712 81.0417 88.5573 79.1372 87.5203C79.1372 87.5203 89.1533 109.836 69.51 129.898C69.5 129.918 50.5097 110.354 59.8777 87.5203Z" fill="#A5E72E"/>
<path d="M53.8949 103.713C53.9008 103.757 53.9091 103.8 53.9198 103.843C53.9896 104.192 54.0644 104.541 54.1392 104.885L54.2937 104.82C54.1392 104.456 54.0046 104.082 53.8949 103.713Z" fill="#00B0C2"/>
<path d="M93.8098 91.5835C85.7431 90.6712 81.0317 88.5573 79.1272 87.5203C79.1272 87.5203 89.1433 109.836 69.4999 129.898C69.4999 129.898 50.5097 110.334 59.8677 87.5203C57.9632 88.5573 53.2518 90.6712 45.19 91.5835C44.3487 94.2183 44.2253 97.0298 44.8326 99.7282C45.44 102.427 46.756 104.914 48.645 106.934C48.645 106.934 51.4918 105.404 53.0224 105.842L47.5831 109.831C47.5831 109.831 48.8644 125.316 65.7208 132.65H74.2562C74.2562 132.65 88.8691 125.536 91.4167 106.725C91.4167 106.725 90.0557 105.189 85.8578 103.883C87.6582 103.342 89.5537 103.192 91.4167 103.444C91.4167 103.444 96.9408 100.528 93.8098 91.5835Z" fill="#7BDA36"/>
<path d="M69.7891 98.0696H69.2108V129.479H69.7891V98.0696Z" fill="#C6C6C5"/>
<path d="M59.8777 87.5203C59.8777 87.5203 51.7162 90.4618 55.6598 100.588C55.6598 100.588 56.5822 89.8535 69.6196 101.789C69.6196 101.789 70.4921 92.7601 65.5114 90.8457C65.5014 90.8457 59.8777 89.9981 59.8777 87.5203Z" fill="#DDDDDD"/>
<path d="M79.3216 87.5203C79.3216 87.5203 86.6654 90.3072 82.5822 99.3861C82.5822 99.3861 78.5288 89.9682 69.6195 101.789C69.6195 101.789 68.3582 91.8578 73.6928 90.8457C73.6828 90.8457 79.3216 89.9981 79.3216 87.5203Z" fill="#DDDDDD"/>
<path d="M97.9829 87.0118C97.9829 87.0118 97.594 60.7525 96.2728 45.4167C96.2728 45.4167 96.2728 45.2571 96.2728 44.968C96.4024 40.1169 94.3583 34.2638 92.1547 30.8487C90.5681 28.3305 88.6647 26.0265 86.491 23.9934C78.8231 16.9986 61.3734 16.5997 56.4177 27.4285C51.7611 30.719 33.2345 47.1965 55.1713 89.6292L60.5408 87.4854L60.8449 79.299C60.8449 79.299 39.7009 57.088 59.105 36.627C62.5051 34.882 66.9773 34.4782 70.7265 35.0466C81.1265 36.622 83.385 48.0092 87.867 55.722C88.6249 57.0232 89.4375 58.494 90.2651 59.3565C90.993 65.7082 91.362 73.7849 91.0628 84.0603C90.8561 92.3596 87.7417 100.323 82.2632 106.56C82.2632 106.56 102.465 113.271 97.9829 87.0118Z" fill="#422918"/>
<path d="M59.1697 36.577C59.5088 36.3626 59.8727 36.1732 60.2367 35.9887C60.6006 35.8043 60.9745 35.6497 61.3534 35.4902C61.7323 35.3306 62.1212 35.206 62.5101 35.0664C62.899 34.9268 63.2929 34.837 63.6917 34.7224C64.0906 34.6077 64.4944 34.5379 64.8982 34.4581C65.3021 34.3784 65.7159 34.3385 66.1297 34.2737C66.5435 34.2089 66.9523 34.2089 67.3711 34.174C67.5755 34.174 67.7849 34.149 67.9943 34.144H68.6225C69.0407 34.1483 69.4585 34.1749 69.8739 34.2238L71.1303 34.3784C71.5391 34.4631 71.9479 34.5728 72.3617 34.6725C72.7747 34.7653 73.1798 34.8903 73.5732 35.0464C73.9671 35.196 74.3759 35.3156 74.7598 35.4951C75.1437 35.6746 75.5226 35.8641 75.9015 36.0585C76.2799 36.2463 76.6433 36.463 76.9884 36.7067L78.0503 37.4096L78.1002 37.4445L78.165 37.5143C78.5239 37.8982 78.853 38.2672 79.1621 38.656C79.4712 39.0449 79.8202 39.4188 80.1243 39.8227C80.4285 40.2265 80.7525 40.6154 81.0467 41.0292L81.9291 42.2656C82.2083 42.6911 82.4825 43.1198 82.7518 43.5519C83.0309 43.9757 83.2503 44.4344 83.5046 44.8881C83.759 45.3364 83.9871 45.7991 84.1876 46.2741C84.3821 46.7726 84.5865 47.2363 84.7709 47.7199L85.2994 49.0411L85.8777 50.4072L86.4561 51.7632C86.6555 52.2169 86.8549 52.6706 87.0593 53.1143L87.6776 54.4605C87.8919 54.9042 88.1113 55.3479 88.3357 55.7866C88.56 56.2254 88.7943 56.6591 89.0386 57.0879L89.4275 57.7161L89.8563 58.3243C89.6718 58.1598 89.4824 57.9953 89.3079 57.8258L88.8093 57.2724C88.4902 56.8835 88.1761 56.4946 87.877 56.0858C87.5778 55.677 87.2986 55.2781 87.0344 54.8892C86.7702 54.5004 86.486 54.0467 86.2317 53.6179C85.7332 52.7554 85.2346 51.8929 84.736 51.0104L84.043 49.6792L83.704 49.0062L83.5395 48.6722L83.4547 48.5026L83.4148 48.4129V48.373V48.3132C83.2054 47.8894 83.011 47.4606 82.8116 47.0319C82.6049 46.6017 82.3735 46.1839 82.1186 45.7805C81.8737 45.3428 81.6058 44.9184 81.3159 44.5092L80.5082 43.3026L79.6407 42.131C79.3565 41.7421 79.0375 41.3682 78.7383 40.9893C78.4392 40.6104 78.1151 40.2365 77.811 39.8576C77.5069 39.4786 77.1728 39.1147 76.8637 38.7657L76.9784 38.8704L76.0311 38.2223C75.7248 37.9939 75.3995 37.7921 75.0589 37.619C74.7249 37.4445 74.3909 37.2551 74.0618 37.0706C73.7328 36.8861 73.3588 36.7714 73.0098 36.6169C72.6614 36.4584 72.3014 36.3267 71.9329 36.223L70.8261 35.899L69.6944 35.6647C69.3157 35.5888 68.9328 35.5356 68.5477 35.5051L67.9694 35.4403C67.7749 35.4403 67.5805 35.4403 67.3861 35.4403C66.9972 35.4403 66.6033 35.3805 66.2144 35.4054C65.8255 35.4303 65.4267 35.4054 65.0378 35.4503L63.8562 35.555C63.4674 35.6148 63.0735 35.6597 62.6796 35.7245C62.2858 35.7893 61.8919 35.8641 61.508 35.9588C61.1241 36.0535 60.7253 36.1383 60.3414 36.248C59.9575 36.3576 59.5536 36.4424 59.1697 36.577Z" fill="#1F140D"/>
<g style="mix-blend-mode:multiply">
<path d="M55.6199 30.0107C55.6199 30.0107 33.1846 46.568 57.5294 88.6866L60.5208 87.4851C60.5208 87.4851 35.8519 55.4125 55.6199 30.0107Z" fill="#C6C6C5"/>
</g>
<g style="mix-blend-mode:multiply">
<path d="M59.1697 28.1265C59.7463 27.7008 60.351 27.3143 60.9795 26.9699C61.5828 26.6408 62.3157 26.242 63.1981 25.8631C63.6369 25.6686 64.1155 25.4841 64.614 25.2797C65.1126 25.0753 65.661 24.9108 66.2344 24.7463C66.8077 24.5817 67.411 24.4222 68.0392 24.2477C68.3483 24.1679 68.6773 24.1181 69.0064 24.0582C69.3354 23.9984 69.6695 23.9336 70.0035 23.8987C71.4521 23.6996 72.9178 23.6545 74.3759 23.7641L75.5326 23.8788L76.6992 24.0881C77.093 24.1594 77.4825 24.2526 77.8658 24.3674L78.4492 24.5369L78.7433 24.6167L79.0275 24.7263L80.1792 25.1701C80.5581 25.3196 80.917 25.524 81.291 25.7085L81.8444 25.9927C82.0288 26.0874 82.1984 26.2071 82.3728 26.3167L83.4198 26.9848C84.7458 27.9525 85.9495 29.0775 87.0045 30.3352C87.2588 30.6492 87.5031 30.9534 87.7673 31.2625L88.4354 32.2596C88.6498 32.5837 88.8841 32.8978 89.0785 33.2268C89.273 33.5559 89.4475 33.8999 89.6319 34.2239C89.8164 34.548 89.9909 34.882 90.1704 35.2211L90.6191 36.2182C90.8983 36.8813 91.2173 37.5145 91.4168 38.1676C91.6162 38.8207 91.8505 39.4389 92.0599 40.0422C92.2693 40.6454 92.379 41.2587 92.5286 41.832C92.6781 42.4054 92.8377 42.9388 92.9125 43.4773C92.9872 44.0157 93.0919 44.5043 93.1767 44.9729C93.2615 45.4416 93.3462 45.8803 93.3861 46.2892C93.426 46.698 93.4659 47.0769 93.5008 47.4159C93.5706 48.094 93.6055 48.6324 93.6354 48.9964C93.6653 49.3603 93.6753 49.5498 93.6753 49.5498C93.6753 49.5498 93.6105 49.3703 93.4908 49.0213C93.3711 48.6723 93.1917 48.1687 92.9922 47.5256C92.8875 47.2015 92.7729 46.8476 92.6532 46.4587C92.5336 46.0698 92.364 45.666 92.2095 45.2222C91.8804 44.3448 91.5564 43.3426 91.1027 42.2907C90.8833 41.7622 90.6639 41.2138 90.4246 40.6504L89.622 38.9354C89.3627 38.3421 89.0237 37.7737 88.6996 37.1804C88.5401 36.8813 88.3755 36.5821 88.201 36.283L87.6427 35.4105L87.0743 34.5281C86.8799 34.2339 86.6555 33.9647 86.4461 33.6755L85.803 32.828L85.095 32.0253C84.1404 30.9508 83.0723 29.9829 81.9092 29.1386L81.0118 28.5553C80.8622 28.4606 80.7176 28.3509 80.5581 28.2661L80.0595 28.0218L79.561 27.7725C79.4088 27.6819 79.2505 27.602 79.0873 27.5332L78.0902 27.1244C76.7901 26.6291 75.439 26.2796 74.0618 26.0824C72.7412 25.894 71.4064 25.8239 70.0733 25.873C68.8642 25.9077 67.6586 26.0192 66.4637 26.207C64.6423 26.4959 62.8432 26.9107 61.0792 27.4485C60.4411 27.6579 59.9276 27.8124 59.5835 27.9471L59.1697 28.1265Z" fill="#C6C6C5"/>
</g>
<g style="mix-blend-mode:multiply">
<path d="M58.2324 31.8756C58.7656 31.4485 59.3287 31.0603 59.9175 30.7139C60.4759 30.3799 61.1689 29.986 61.9965 29.5922C62.9261 29.1536 63.8838 28.7771 64.8632 28.4654C66.0394 28.0913 67.2478 27.8276 68.4728 27.6777C69.865 27.5026 71.2736 27.5026 72.6658 27.6777C74.1839 27.8415 75.6673 28.2401 77.0631 28.8592L77.6065 29.0886C77.781 29.1734 77.9505 29.2731 78.1051 29.3678C78.4491 29.5523 78.7981 29.7367 79.1371 29.9461C79.7994 30.3759 80.4338 30.8472 81.0366 31.3571C81.3308 31.6163 81.6349 31.8556 81.9191 32.1398L82.7218 32.9973L83.1206 33.4211C83.2502 33.5657 83.3599 33.7252 83.4796 33.8798L84.1776 34.7922C84.4079 35.0928 84.6194 35.4075 84.8107 35.7344C85.0102 36.0535 85.2046 36.3726 85.404 36.6867L85.5486 36.926L85.6733 37.1653L85.9225 37.6639L86.4211 38.6311C86.5906 38.9502 86.7202 39.2742 86.8548 39.5983L87.2437 40.5605C87.3634 40.8796 87.503 41.1887 87.6077 41.5078L87.9068 42.4451C88.0015 42.7542 88.0963 43.0583 88.186 43.3575C88.2862 43.6486 88.371 43.9449 88.4403 44.2449C88.5749 44.8382 88.7095 45.4066 88.8391 45.95C88.8989 46.2242 88.9588 46.4934 89.0136 46.7527C89.0685 47.0119 89.1034 47.2512 89.1432 47.5254C89.223 48.024 89.2928 48.5226 89.3626 48.9563C89.4848 49.7294 89.568 50.5082 89.6119 51.2896C89.6717 51.9328 89.6917 52.4413 89.7166 52.7853C89.7415 53.1293 89.7465 53.3138 89.7465 53.3138L89.577 52.8152C89.4723 52.4812 89.3078 51.9976 89.1283 51.3793C88.9488 50.7611 88.7245 50.0182 88.4253 49.1757C88.2807 48.7519 88.1312 48.3032 87.9716 47.8296C87.8968 47.5903 87.8171 47.331 87.7373 47.1017L87.4481 46.3538C87.2587 45.8453 87.0593 45.3168 86.8499 44.7684C86.6504 44.22 86.3862 43.6765 86.1469 43.1082L85.7779 42.2457C85.6583 41.9515 85.4988 41.6773 85.3542 41.3881L84.9204 40.5156C84.781 40.2161 84.6245 39.9248 84.4518 39.6432L83.9532 38.7807L83.6989 38.3419L83.5693 38.1226L83.4247 37.9132L82.8464 37.0756C82.6634 36.7866 82.4636 36.5086 82.2481 36.243L81.6 35.4453C81.4903 35.3156 81.3906 35.1761 81.2759 35.0514L80.917 34.6825L80.209 33.9396C79.9597 33.7053 79.7104 33.4959 79.4362 33.2666C78.9245 32.815 78.3868 32.3938 77.8259 32.0052C77.5417 31.8307 77.2426 31.6711 76.9584 31.5066C76.8138 31.4268 76.6692 31.3321 76.5246 31.2573L76.0709 31.0479C75.7618 30.9183 75.4727 30.7538 75.1586 30.6491L74.2312 30.3151C73.9221 30.2054 73.5981 30.1456 73.289 30.0558L72.7904 29.9312L72.3168 29.8514C71.9977 29.8016 71.6886 29.7218 71.3745 29.6968L70.4322 29.5971C70.1181 29.5971 69.809 29.5971 69.4999 29.5572C69.1908 29.5174 68.8916 29.5572 68.5875 29.5572C67.4441 29.5765 66.3039 29.6848 65.1773 29.8813C64.2066 30.0391 63.2448 30.2471 62.2956 30.5045C61.4431 30.7339 60.7052 30.9632 60.097 31.1726C59.4887 31.382 59.0151 31.5515 58.696 31.6711L58.2324 31.8756Z" fill="#C6C6C5"/>
</g>
<path d="M106.917 55.0385C106.916 55.269 106.87 55.4971 106.782 55.7098C106.693 55.9224 106.563 56.1155 106.4 56.278C106.236 56.4405 106.042 56.5692 105.829 56.6568C105.616 56.7444 105.388 56.7891 105.157 56.7885C104.927 56.7891 104.698 56.7444 104.485 56.6568C104.272 56.5692 104.078 56.4405 103.915 56.278C103.751 56.1155 103.621 55.9224 103.533 55.7098C103.444 55.4971 103.398 55.269 103.397 55.0385C103.4 54.5735 103.586 54.1284 103.916 53.8005C104.246 53.4726 104.692 53.2886 105.157 53.2886C105.622 53.2886 106.068 53.4726 106.398 53.8005C106.728 54.1284 106.914 54.5735 106.917 55.0385Z" fill="#10BF18"/>
<path d="M91.1575 50.0083C91.1575 48.8183 91.6302 47.677 92.4717 46.8355C93.3132 45.994 94.4545 45.5212 95.6446 45.5212C96.8346 45.5212 97.9759 45.994 98.8174 46.8355C99.6589 47.677 100.132 48.8183 100.132 50.0083V60.0743C100.132 61.2643 99.6589 62.4056 98.8174 63.2471C97.9759 64.0886 96.8346 64.5613 95.6446 64.5613C94.4545 64.5613 93.3132 64.0886 92.4717 63.2471C91.6302 62.4056 91.1575 61.2643 91.1575 60.0743V50.0083Z" fill="#464F5B"/>
<g style="mix-blend-mode:multiply">
<path d="M96.5769 50.2472C98.5213 52.6503 98.7855 55.4422 98.2271 58.3937C97.7585 60.9214 95.8689 63.4741 93.2415 63.838C93.961 64.3013 94.7988 64.5471 95.6545 64.546C96.8446 64.546 97.9859 64.0732 98.8274 63.2317C99.6688 62.3903 100.142 61.249 100.142 60.0589V49.9929C100.142 48.8029 99.6688 47.6616 98.8274 46.8201C97.9859 45.9786 96.8446 45.5059 95.6545 45.5059C94.7347 45.5048 93.8369 45.7864 93.0824 46.3125C92.328 46.8386 91.7535 47.5839 91.4367 48.4474C93.3312 48.243 95.3105 48.6867 96.5769 50.2472Z" fill="#C6C6C5"/>
</g>
<g style="mix-blend-mode:soft-light" opacity="0.5">
<path d="M92.748 50.0084C92.748 49.9469 92.7601 49.886 92.7837 49.8291C92.8072 49.7722 92.8417 49.7206 92.8852 49.6771C92.9288 49.6335 92.9804 49.599 93.0373 49.5755C93.0941 49.5519 93.1551 49.5398 93.2166 49.5398C93.2782 49.5398 93.3391 49.5519 93.396 49.5755C93.4528 49.599 93.5045 49.6335 93.548 49.6771C93.5915 49.7206 93.6261 49.7722 93.6496 49.8291C93.6732 49.886 93.6853 49.9469 93.6853 50.0084V61.3707C93.6853 61.495 93.6359 61.6142 93.548 61.7021C93.4601 61.7899 93.3409 61.8393 93.2166 61.8393C93.0923 61.8393 92.9731 61.7899 92.8852 61.7021C92.7974 61.6142 92.748 61.495 92.748 61.3707V50.0084Z" fill="white"/>
</g>
<path d="M99.5433 48.1833V61.8938C101.047 61.4823 102.374 60.5888 103.32 59.3505C104.267 58.1121 104.781 56.5973 104.783 55.0386C104.779 53.4803 104.264 51.9663 103.318 50.7283C102.372 49.4903 101.046 48.5963 99.5433 48.1833Z" fill="#A5E72E"/>
<g style="mix-blend-mode:multiply">
<path d="M102.654 57.6614C100.361 56.1906 99.7776 54.1166 99.5433 51.6238V61.8942C100.503 61.632 101.398 61.1724 102.171 60.5449C102.944 59.9174 103.577 59.1357 104.03 58.2497C103.544 58.1263 103.08 57.9278 102.654 57.6614Z" fill="#D9D9D9"/>
</g>
<path d="M101.757 58.7681C101.757 58.7681 104.339 82.2703 79.6108 81.6022" stroke="#2C343F" stroke-width="1.08938" stroke-linecap="round" stroke-linejoin="round"/>
<path d="M80.5232 81.6919C80.5225 81.9617 80.4687 82.2287 80.3649 82.4776C80.2611 82.7266 80.1092 82.9526 79.918 83.1429C79.7268 83.3332 79.5 83.4839 79.2505 83.5866C79.0011 83.6892 78.7338 83.7417 78.4641 83.741H75.6971C75.4273 83.7417 75.1601 83.6892 74.9106 83.5866C74.6612 83.4839 74.4344 83.3332 74.2432 83.1429C74.0519 82.9526 73.9001 82.7266 73.7963 82.4776C73.6924 82.2287 73.6387 81.9617 73.638 81.6919C73.6387 81.4222 73.6924 81.1552 73.7963 80.9062C73.9001 80.6573 74.0519 80.4312 74.2432 80.2409C74.4344 80.0507 74.6612 79.8999 74.9106 79.7973C75.1601 79.6947 75.4273 79.6422 75.6971 79.6428H78.4641C78.7338 79.6422 79.0011 79.6947 79.2505 79.7973C79.5 79.8999 79.7268 80.0507 79.918 80.2409C80.1092 80.4312 80.2611 80.6573 80.3649 80.9062C80.4687 81.1552 80.5225 81.4222 80.5232 81.6919Z" fill="#232A33"/>
<path d="M36.2558 55.0385C36.2571 55.5031 36.4426 55.9482 36.7715 56.2763C37.1005 56.6043 37.5461 56.7885 38.0107 56.7885C38.4766 56.7898 38.924 56.6064 39.2549 56.2783C39.5857 55.9503 39.773 55.5044 39.7756 55.0385C39.773 54.5726 39.5857 54.1268 39.2549 53.7988C38.924 53.4707 38.4766 53.2873 38.0107 53.2886C37.5461 53.2886 37.1005 53.4728 36.7715 53.8008C36.4426 54.1289 36.2571 54.574 36.2558 55.0385Z" fill="#10BF18"/>
<path d="M52.0154 50.0083C52.0154 48.8183 51.5426 47.677 50.7011 46.8355C49.8596 45.994 48.7183 45.5212 47.5283 45.5212C46.3382 45.5212 45.197 45.994 44.3555 46.8355C43.514 47.677 43.0412 48.8183 43.0412 50.0083V60.0743C43.0412 61.2643 43.514 62.4056 44.3555 63.2471C45.197 64.0886 46.3382 64.5613 47.5283 64.5613C48.7183 64.5613 49.8596 64.0886 50.7011 63.2471C51.5426 62.4056 52.0154 61.2643 52.0154 60.0743V50.0083Z" fill="#464F5B"/>
<g style="mix-blend-mode:multiply">
<path d="M46.596 50.2472C44.6516 52.6503 44.3874 55.4422 44.9408 58.3937C45.4394 60.9214 47.299 63.4741 49.9264 63.838C49.2054 64.3019 48.3658 64.5477 47.5084 64.546C46.3184 64.546 45.177 64.0732 44.3356 63.2317C43.4941 62.3903 43.0213 61.249 43.0213 60.0589V49.9929C43.0213 48.8029 43.4941 47.6616 44.3356 46.8201C45.177 45.9786 46.3184 45.5059 47.5084 45.5059C48.4282 45.5048 49.3261 45.7864 50.0805 46.3125C50.8349 46.8386 51.4094 47.5839 51.7262 48.4474C49.8367 48.243 47.8574 48.6867 46.596 50.2472Z" fill="#C6C6C5"/>
</g>
<g style="mix-blend-mode:soft-light" opacity="0.5">
<path d="M50.405 50.0084C50.405 49.9469 50.3929 49.886 50.3693 49.8291C50.3458 49.7722 50.3112 49.7206 50.2677 49.6771C50.2242 49.6335 50.1725 49.599 50.1157 49.5755C50.0588 49.5519 49.9979 49.5398 49.9363 49.5398C49.8748 49.5398 49.8138 49.5519 49.757 49.5755C49.7001 49.599 49.6485 49.6335 49.605 49.6771C49.5614 49.7206 49.5269 49.7722 49.5034 49.8291C49.4798 49.886 49.4677 49.9469 49.4677 50.0084V61.3707C49.4677 61.495 49.5171 61.6142 49.605 61.7021C49.6928 61.7899 49.812 61.8393 49.9363 61.8393C50.0606 61.8393 50.1798 61.7899 50.2677 61.7021C50.3556 61.6142 50.405 61.495 50.405 61.3707V50.0084Z" fill="white"/>
</g>
<path d="M43.6245 48.1833V61.8938C42.122 61.4814 40.7963 60.5875 39.8507 59.3492C38.9051 58.1109 38.3918 56.5966 38.3896 55.0386C38.3927 53.4808 38.9063 51.9669 39.8517 50.7287C40.7972 49.4906 42.1224 48.5965 43.6245 48.1833Z" fill="#A5E72E"/>
<g style="mix-blend-mode:multiply">
<path d="M40.5135 57.6614C42.8069 56.1906 43.3902 54.1166 43.6245 51.6238V61.8942C42.6642 61.6322 41.7692 61.1728 40.9965 60.5453C40.2239 59.9177 39.5907 59.1359 39.1375 58.2497C39.6238 58.1258 40.088 57.9274 40.5135 57.6614Z" fill="#A5E72E"/>
</g>
</g>
</svg>
