<svg width="415" height="429" viewBox="0 0 415 429" fill="none" xmlns="http://www.w3.org/2000/svg">
<g id="Component 2" filter="url(#filter0_d_509_31853)">
<path id="Vector" d="M207.5 421C319.89 421 411 326.756 411 210.5C411 94.2441 319.89 0 207.5 0C95.1101 0 4 94.2441 4 210.5C4 326.756 95.1101 421 207.5 421Z" fill="url(#paint0_linear_509_31853)"/>
<path id="Vector_2" d="M207.503 99.7466C241.721 99.7466 245.761 99.7466 259.267 100.526C267.39 100.623 275.436 102.163 283.054 105.079C288.62 107.209 293.657 110.597 297.797 114.996C302.053 119.276 305.328 124.486 307.384 130.246C310.196 138.128 311.684 146.45 311.785 154.851C312.419 168.822 312.539 173.032 312.539 208.396C312.539 243.76 312.539 248.001 311.785 261.972C311.684 270.373 310.196 278.695 307.384 286.577C305.328 292.337 302.053 297.547 297.797 301.827C293.649 306.215 288.614 309.601 283.054 311.743C275.436 314.659 267.39 316.199 259.267 316.297C245.761 316.92 241.721 317.076 207.503 317.076C173.285 317.076 169.245 316.92 155.739 316.297C147.607 316.194 139.552 314.654 131.921 311.743C126.37 309.601 121.346 306.214 117.209 301.827C112.953 297.547 109.678 292.337 107.622 286.577C104.796 278.698 103.297 270.375 103.19 261.972C102.587 248.001 102.467 243.791 102.467 208.396C102.467 173.001 102.467 168.822 103.19 154.851C103.297 146.447 104.796 138.125 107.622 130.246C109.678 124.486 112.953 119.276 117.209 114.996C121.338 110.598 126.364 107.21 131.921 105.079C139.542 102.171 147.587 100.631 155.708 100.526C169.245 99.9025 173.285 99.7466 207.503 99.7466ZM207.503 75.8587C172.712 75.8587 168.31 76.0147 154.683 76.6696C144.047 76.917 133.527 79.0258 123.571 82.9066C115.008 86.2096 107.256 91.4274 100.869 98.1873C94.3536 104.811 89.3125 112.825 86.0964 121.67C82.3475 131.959 80.3088 142.829 80.0668 153.822C79.4639 167.949 79.3131 172.533 79.3131 208.458C79.3131 244.383 79.3131 248.999 80.0668 263.126C80.3088 274.118 82.3475 284.989 86.0964 295.278C89.3125 304.123 94.3536 312.136 100.869 318.76C107.265 325.51 115.014 330.726 123.571 334.041C133.527 337.922 144.047 340.03 154.683 340.278C168.341 340.933 172.772 341.058 207.503 341.058C242.234 341.058 246.696 341.058 260.323 340.278C270.959 340.027 281.478 337.918 291.435 334.041C299.984 330.711 307.731 325.496 314.137 318.76C320.66 312.118 325.701 304.083 328.91 295.215C332.673 284.931 334.712 274.057 334.939 263.063C335.572 248.905 335.723 244.352 335.723 208.396C335.723 172.439 335.572 167.855 334.939 153.759C334.712 142.765 332.673 131.892 328.91 121.607C325.694 112.763 320.652 104.749 314.137 98.125C307.739 91.3785 299.99 86.1628 291.435 82.8442C281.478 78.9669 270.959 76.8582 260.323 76.6072C246.665 75.9523 242.234 75.7964 207.503 75.7964V75.8587Z" fill="white"/>
<path id="Vector_3" d="M207.496 142.42C190.047 142.42 173.311 149.588 160.97 162.349C148.628 175.109 141.691 192.417 141.683 210.466C141.683 228.522 148.617 245.837 160.959 258.604C173.302 271.371 190.042 278.544 207.496 278.544C216.138 278.544 224.694 276.783 232.678 273.361C240.661 269.939 247.914 264.924 254.023 258.602C260.132 252.28 264.977 244.775 268.281 236.516C271.585 228.257 273.284 219.405 273.28 210.466C273.28 201.53 271.578 192.682 268.272 184.426C264.966 176.171 260.121 168.669 254.012 162.351C241.675 149.589 224.943 142.42 207.496 142.42ZM207.496 254.687C201.885 254.691 196.328 253.551 191.144 251.332C185.959 249.112 181.248 245.858 177.28 241.753C173.312 237.649 170.166 232.776 168.02 227.413C165.875 222.05 164.773 216.302 164.777 210.498C164.773 204.693 165.875 198.945 168.02 193.582C170.166 188.219 173.312 183.346 177.28 179.242C181.248 175.138 185.959 171.883 191.144 169.664C196.328 167.444 201.885 166.304 207.496 166.308C218.821 166.308 229.683 170.96 237.693 179.24C245.704 187.52 250.208 198.752 250.216 210.466C250.216 222.186 245.716 233.426 237.704 241.713C229.692 250 218.826 254.656 207.496 254.656V254.687Z" fill="white"/>
<path id="Vector_4" d="M275.908 153.571C284.399 153.571 291.283 146.45 291.283 137.666C291.283 128.883 284.399 121.762 275.908 121.762C267.416 121.762 260.532 128.883 260.532 137.666C260.532 146.45 267.416 153.571 275.908 153.571Z" fill="white"/>
</g>
<defs>
<filter id="filter0_d_509_31853" x="0" y="0" width="415" height="429" filterUnits="userSpaceOnUse" color-interpolation-filters="sRGB">
<feFlood flood-opacity="0" result="BackgroundImageFix"/>
<feColorMatrix in="SourceAlpha" type="matrix" values="0 0 0 0 0 0 0 0 0 0 0 0 0 0 0 0 0 0 127 0" result="hardAlpha"/>
<feOffset dy="4"/>
<feGaussianBlur stdDeviation="2"/>
<feComposite in2="hardAlpha" operator="out"/>
<feColorMatrix type="matrix" values="0 0 0 0 0 0 0 0 0 0 0 0 0 0 0 0 0 0 0.25 0"/>
<feBlend mode="normal" in2="BackgroundImageFix" result="effect1_dropShadow_509_31853"/>
<feBlend mode="normal" in="SourceGraphic" in2="effect1_dropShadow_509_31853" result="shape"/>
</filter>
<linearGradient id="paint0_linear_509_31853" x1="207.5" y1="0" x2="207.5" y2="421" gradientUnits="userSpaceOnUse">
<stop stop-color="#00BEFA"/>
<stop offset="0.0001" stop-color="#003ADE"/>
<stop offset="1" stop-color="#008DFB"/>
</linearGradient>
</defs>
</svg>
