<svg width="410" height="399" viewBox="0 0 410 399" fill="none" xmlns="http://www.w3.org/2000/svg">
<g id="Component 3" filter="url(#filter0_d_509_31851)">
<path id="Vector" d="M205 391C316.009 391 406 303.472 406 195.5C406 87.5283 316.009 0 205 0C93.9908 0 4 87.5283 4 195.5C4 303.472 93.9908 391 205 391Z" fill="url(#paint0_linear_509_31851)"/>
<g id="WA Logo">
<path id="Vector_2" fill-rule="evenodd" clip-rule="evenodd" d="M301.52 103.958C280.08 82.6259 251.553 69.7606 221.259 67.7612C190.965 65.7618 160.973 74.7649 136.875 93.0916C112.777 111.418 96.2174 137.818 90.2851 167.367C84.3528 196.916 89.4525 227.597 104.633 253.69L86.9016 317.989L153.183 300.741C171.536 310.64 192.091 315.832 212.979 315.844C237.717 315.846 261.899 308.569 282.469 294.933C303.039 281.296 319.073 261.913 328.544 239.234C338.014 216.555 340.496 191.599 335.676 167.52C330.855 143.442 318.949 121.322 301.462 103.958H301.52ZM213.009 294.885C194.385 294.841 176.114 289.835 160.106 280.39L156.309 278.158L116.961 288.391L127.301 250.443L124.965 246.559C112.717 227.18 107.307 204.311 109.584 181.548C111.86 158.785 121.696 137.418 137.543 120.806C153.39 104.195 174.35 93.2808 197.129 89.78C219.908 86.2792 243.213 90.3901 263.381 101.467C283.548 112.543 299.435 129.957 308.543 150.97C317.651 171.984 319.465 195.405 313.698 217.553C307.931 239.7 294.91 259.318 276.684 273.321C258.458 287.325 236.059 294.92 213.009 294.914V294.885ZM270.059 217.569C266.933 216.004 251.568 208.524 248.705 207.481C245.843 206.437 243.739 205.944 241.665 209.046C239.591 212.148 233.603 219.134 231.763 221.193C229.922 223.251 228.111 223.512 224.985 221.975C215.781 218.317 207.282 213.11 199.863 206.582C192.98 200.324 187.073 193.084 182.336 185.1C180.496 181.999 182.132 180.317 183.709 178.781C185.287 177.244 186.835 175.157 188.383 173.331C189.682 171.809 190.754 170.11 191.567 168.286C191.977 167.426 192.168 166.479 192.122 165.529C192.076 164.578 191.795 163.654 191.304 162.836C190.516 161.3 184.264 146.022 181.664 139.818C179.065 133.615 176.552 134.6 174.654 134.513C172.755 134.426 170.739 134.513 168.636 134.513C167.054 134.558 165.498 134.926 164.065 135.594C162.633 136.263 161.355 137.217 160.311 138.398C156.781 141.72 153.987 145.735 152.106 150.187C150.226 154.639 149.299 159.43 149.385 164.257C149.385 179.505 160.574 194.261 162.151 196.32C163.728 198.378 184.177 229.716 215.521 243.138C221.342 245.626 227.29 247.813 233.34 249.69C239.718 251.609 246.46 252.026 253.029 250.907C259.046 250.008 271.52 243.399 274.12 236.18C276.719 228.962 276.749 222.729 275.96 221.425C275.171 220.12 273.185 219.192 270.059 217.569Z" fill="white"/>
</g>
</g>
<defs>
<filter id="filter0_d_509_31851" x="0" y="0" width="410" height="399" filterUnits="userSpaceOnUse" color-interpolation-filters="sRGB">
<feFlood flood-opacity="0" result="BackgroundImageFix"/>
<feColorMatrix in="SourceAlpha" type="matrix" values="0 0 0 0 0 0 0 0 0 0 0 0 0 0 0 0 0 0 127 0" result="hardAlpha"/>
<feOffset dy="4"/>
<feGaussianBlur stdDeviation="2"/>
<feComposite in2="hardAlpha" operator="out"/>
<feColorMatrix type="matrix" values="0 0 0 0 0 0 0 0 0 0 0 0 0 0 0 0 0 0 0.25 0"/>
<feBlend mode="normal" in2="BackgroundImageFix" result="effect1_dropShadow_509_31851"/>
<feBlend mode="normal" in="SourceGraphic" in2="effect1_dropShadow_509_31851" result="shape"/>
</filter>
<linearGradient id="paint0_linear_509_31851" x1="205" y1="0" x2="205" y2="391" gradientUnits="userSpaceOnUse">
<stop stop-color="#00BEFA"/>
<stop offset="0.0001" stop-color="#003ADE"/>
<stop offset="1" stop-color="#008DFB"/>
</linearGradient>
</defs>
</svg>
