
<?xml version="1.0" encoding="utf-8"?>
<!-- Generator: Adobe Illustrator 26.0.0, SVG Export Plug-In . SVG Version: 6.00 Build 0)  -->
<svg version="1.1" id="Capa_1" xmlns="http://www.w3.org/2000/svg" xmlns:xlink="http://www.w3.org/1999/xlink" x="0px" y="0px"
	 viewBox="0 0 600.27 586.27" style="enable-background:new 0 0 600.27 586.27;" xml:space="preserve">
<style type="text/css">
	.st0{display:none;}
	.st1{clip-path:url(#SVGID_00000115504700069145664810000004342144624158226868_);}
	.st2{fill:none;stroke:#2C343F;stroke-width:3.1716;stroke-linecap:round;stroke-linejoin:round;stroke-miterlimit:10;}
	.st3{fill:#140600;}
	.st4{fill:#F6C6AD;}
	.st5{fill:#FFFFFF;}
	.st6{fill:#D9D9D9;}
	.st7{opacity:0.5;fill:#FFFFFF;}
	.st8{fill:#ECECEC;}
	.st9{fill:#A5E72E;}
	.st10{fill:#00B0C2;}
	.st11{fill:#7BDA36;}
	.st12{fill:#C6C6C5;}
	.st13{fill:#DDDDDD;}
	.st14{fill:#422918;}
	.st15{fill:#1F140D;}
	.st16{fill:#10BF18;}
	.st17{fill:#464F5B;}
	.st18{fill:none;stroke:#2C343F;stroke-width:3.6191;stroke-linecap:round;stroke-linejoin:round;stroke-miterlimit:10;}
	.st19{fill:#232A33;}
</style>
<g id="Capa_1_00000135652129289774188050000011373787437841889458_" class="st0">
</g>
<g>
	<defs>
		<circle id="SVGID_1_" cx="300.14" cy="293.14" r="286.63"/>
	</defs>
	<use xlink:href="#SVGID_1_"  style="overflow:visible;fill:#34CEFF;"/>
	<clipPath id="SVGID_00000119108424230927889880000009698244642193136530_">
		<use xlink:href="#SVGID_1_"  style="overflow:visible;"/>
	</clipPath>
	<g style="clip-path:url(#SVGID_00000119108424230927889880000009698244642193136530_);">
		<g>
			<g>
				<path class="st2" d="M487.22,219.29v-13.13c0,0-0.54-9.99-9.09-15.99c0,0-25.97-16.65-26.93-79.46c0,0-1.93-87.3-103.54-87.3
					h-47.34"/>
				<path class="st2" d="M134.6,219.29v-13.13c0,0,0.54-9.99,9.09-15.99c0,0,25.96-16.65,26.93-79.46c0,0,1.93-87.3,103.55-87.3
					h47.34"/>
			</g>
			<g>
				<g>
					<rect x="232.58" y="210.88" class="st3" width="188.95" height="223.1"/>
					<path class="st4" d="M425.69,412.34c-50.89-5.75-75.96-20.79-80.24-23.58h-90.62c-4.29,2.8-29.35,17.83-80.25,23.58
						c0,0-96.99,3.63-94.28,179.48c0,0,72.99,32.93,219.83,32.65c146.84,0.27,219.83-32.65,219.83-32.65
						C522.69,415.97,425.69,412.34,425.69,412.34z"/>
					<path class="st5" d="M174.58,412.34c0,0-96.99,3.63-94.28,179.48c0,0,72.99,32.93,219.83,32.65
						c146.84,0.27,219.83-32.65,219.83-32.65c2.72-175.85-94.28-179.48-94.28-179.48s-94.46-6.7-125.56,33.51
						C300.13,445.85,270.17,396.39,174.58,412.34z"/>
					<g>
						<rect x="253.87" y="339.86" class="st4" width="92.53" height="67.3"/>
						<path class="st6" d="M253.87,359.05v0.02c1.02,1.2,2.05,2.4,3.15,3.53c2.89,2.98,5.89,5.86,9.12,8.47
							c0.11,0.08,0.19,0.15,0.29,0.24c1.04,0.76,2.09,1.5,3.17,2.23c1.64,1.1,3.28,2.2,4.99,3.21c2.46,1.46,4.96,2.89,7.54,4.15
							c0.82,0.32,3.25,1.33,3.99,1.58c2.49,0.84,4.98,1.68,7.53,2.35c2.62,0.68,5.23,1.36,7.89,1.87c-0.69-0.13,7,1.15,5.15,0.99
							c6.23,0.69,12.5,1.16,18.78,1.04c2.69-0.05,5.39-0.1,8.07-0.31c0.86-0.07,4.87-0.67,5.27-0.67c2.57-0.55,5.09-1.27,7.59-2.07
							v-45.81h-92.53v18.99C254.14,359.25,254.2,359.4,253.87,359.05z"/>
					</g>
					<path class="st4" d="M405.41,218.2c0,79.7-47.13,144.31-105.28,144.31c-58.14,0-105.27-64.61-105.27-144.31
						c0-79.7,47.13-129.64,105.27-129.64C358.28,88.56,405.41,138.51,405.41,218.2z"/>
					<path class="st7" d="M244.02,153.1c0.03-0.19,0.07-0.37,0.1-0.55c14.88-17.47,35.4-27.19,58.06-27.19
						c45.42,0,82.24,39.02,82.24,101.29c0,41.5-16.37,77.74-40.73,97.3C343.7,323.95,206.05,307.55,244.02,153.1z"/>
					<path class="st8" d="M283.74,330.77c-35.87-22.61-55.42-60.98-60.39-102.27c-4.67-38.79,5.21-81.71,29.82-112.38
						c8.53-10.63,19.45-19.64,31.57-26.35c-50.84,8.02-89.88,55.9-89.88,128.43c0,79.7,47.13,144.31,105.27,144.31
						c16.89,0,32.85-5.46,46.99-15.15C325.1,348.11,303.02,342.93,283.74,330.77z"/>
					<path class="st9" d="M250.4,391.37c-9.83,5.35-34.18,16.27-75.82,20.97c0,0-96.99,3.63-94.28,179.48
						c0,0,72.99,32.93,219.83,32.65c146.84,0.27,219.83-32.65,219.83-32.65c2.72-175.85-94.28-179.48-94.28-179.48
						c-41.65-4.7-66-15.63-75.82-20.98c0,0,51.72,115.25-49.74,218.97C300.13,610.34,202.08,509.28,250.4,391.37z"/>
					<path class="st10" d="M219.46,474.99c0.04,0.23,0.08,0.45,0.13,0.68c0.37,1.79,0.75,3.59,1.15,5.38
						c0.26-0.12,0.52-0.23,0.79-0.34C220.82,478.83,220.13,476.91,219.46,474.99z"/>
					<path class="st11" d="M425.69,412.34c-41.65-4.7-66-15.63-75.82-20.98c0,0,51.72,115.25-49.74,218.97
						c0,0-98.06-101.05-49.74-218.97c-9.83,5.35-34.18,16.27-75.82,20.97c0,0-16.05,41.98,17.87,79.29c0,0,14.69-7.91,22.61-5.65
						l-28.1,20.63c0,0,6.62,79.99,93.67,117.85h44.09c0,0,75.47-36.74,88.61-133.97c0,0-7.03-7.93-28.7-14.69
						c0,0,13.3-4.53,28.7-2.26C413.32,473.54,441.88,458.54,425.69,412.34z"/>
					<path class="st10" d="M300.13,624.47"/>
					<rect x="298.64" y="445.85" class="st12" width="2.99" height="162.23"/>
					<path class="st13" d="M250.4,391.37c0,0-42.14,15.19-21.78,67.48c0,0,4.75-55.43,72.1,6.22c0,0,4.49-46.63-21.23-56.53
						C279.49,408.54,250.4,404.16,250.4,391.37z"/>
					<path class="st13" d="M350.84,391.37c0,0,37.93,14.4,16.83,61.27c0,0-20.91-48.61-66.95,12.43c0,0-6.54-51.3,21.02-56.53
						C321.74,408.54,350.84,404.16,350.84,391.37z"/>
					<path class="st14" d="M447.26,388.74c0,0-2.03-135.63-8.84-214.77c0,0,0.01-0.84-0.03-2.33c0.67-25.04-9.89-55.28-21.27-72.9
						c-8.31-12.87-17.89-25.06-29.23-35.42c-39.55-36.08-129.74-38.23-155.3,17.7C208.53,98,112.86,183.11,226.15,402.25
						l27.72-11.07l1.58-42.29c0,0-109.19-114.71-8.99-220.38c0,0,0.12-0.08,0.33-0.24c-0.11,0.1-0.22,0.18-0.33,0.24
						c17.57-9.01,40.66-11.08,60.03-8.16c53.71,8.14,65.37,67.04,88.51,106.78c3.91,6.72,8.13,14.33,12.38,18.77
						c3.76,32.8,5.67,74.53,4.13,127.6c0,0,1.66,63.62-45.44,116.19C366.07,489.7,470.39,524.37,447.26,388.74z"/>
					<g>
						<path class="st15" d="M246.79,128.27c1.77-1.12,3.63-2.1,5.52-3.04c1.88-0.94,3.82-1.76,5.78-2.55
							c1.94-0.85,3.95-1.48,5.95-2.18c2.02-0.64,4.06-1.18,6.11-1.78c2.06-0.51,4.15-0.94,6.24-1.38c2.1-0.39,4.22-0.62,6.34-0.94
							c2.12-0.37,4.27-0.34,6.42-0.53c1.07-0.07,2.15-0.14,3.23-0.14l3.23,0.11c2.16,0.11,4.33,0.04,6.48,0.39l6.47,0.81
							c2.13,0.44,4.24,1,6.36,1.5c2.15,0.44,4.2,1.19,6.25,1.94c2.04,0.78,4.16,1.39,6.14,2.32c1.96,0.96,3.94,1.9,5.89,2.9
							c2.01,0.91,3.8,2.17,5.62,3.37l5.48,3.62l0.25,0.17l0.34,0.36c1.84,1.99,3.56,3.89,5.27,5.89c1.69,1.99,3.42,3.95,4.98,6.04
							c1.58,2.08,3.24,4.09,4.75,6.23l4.56,6.38c1.45,2.19,2.86,4.41,4.26,6.64c1.44,2.19,2.65,4.56,3.88,6.91
							c1.18,2.39,2.6,4.59,3.52,7.15c1.01,2.5,2.06,4.98,3.01,7.48l2.74,6.82l2.97,7.04l3.01,7.02c1.01,2.34,2.05,4.67,3.11,6.98
							l3.2,6.94c1.09,2.3,2.22,4.58,3.39,6.84c1.13,2.29,2.37,4.51,3.63,6.72l2,3.26l2.22,3.14c-0.95-0.86-1.93-1.71-2.85-2.63
							l-2.64-2.86c-1.65-2-3.28-4.02-4.81-6.12c-1.54-2.09-2.98-4.24-4.41-6.4c-1.42-2.16-2.84-4.33-4.15-6.56
							c-2.64-4.44-5.25-8.91-7.68-13.47l-3.57-6.87l-1.75-3.46l-0.86-1.74l-0.43-0.88l-0.22-0.44l-0.1-0.22l-0.05-0.11l-0.03-0.05
							l-0.12-0.29c-1.09-2.2-2.08-4.42-3.11-6.62c-0.9-2.24-2.39-4.31-3.58-6.46c-1.25-2.13-2.47-4.28-3.95-6.3l-4.17-6.22
							l-4.47-6.05c-1.47-2.03-3.12-3.94-4.67-5.92c-1.56-1.98-3.2-3.87-4.79-5.83c-1.59-1.92-3.28-3.85-4.88-5.65l0.59,0.53
							l-4.89-3.33c-1.63-1.12-3.23-2.29-5.02-3.12c-1.74-0.91-3.46-1.89-5.19-2.83c-1.74-0.93-3.62-1.55-5.43-2.34
							c-1.82-0.77-3.64-1.55-5.56-2.03l-5.7-1.69l-5.85-1.2c-1.94-0.49-3.95-0.56-5.93-0.83l-2.99-0.34c-1-0.09-2.01-0.06-3.01-0.13
							c-2.01-0.04-4.03-0.3-6.05-0.17c-2.02,0.08-4.05,0.07-6.08,0.22l-6.09,0.55c-2.02,0.3-4.06,0.54-6.08,0.88
							c-2,0.43-4.06,0.7-6.06,1.2c-2.02,0.43-4.02,0.94-6.03,1.5C250.75,126.97,248.77,127.59,246.79,128.27z"/>
					</g>
					<path class="st12" d="M228.45,94.34c0,0-115.75,85.51,9.88,303.05l15.54-6.21C253.87,391.19,126.37,225.54,228.45,94.34z"/>
					<g>
						<path class="st12" d="M246.79,84.62c0,0,3.19-2.49,9.36-5.97c3.1-1.7,6.9-3.77,11.46-5.71c2.26-1.02,4.72-1.98,7.32-3.01
							c2.63-0.95,5.4-1.92,8.37-2.77c2.93-0.93,6.06-1.68,9.3-2.48c1.62-0.41,3.3-0.65,5-0.98c1.7-0.32,3.43-0.63,5.21-0.82
							c7.07-1.04,14.71-1.22,22.59-0.69c1.98,0.19,3.97,0.39,5.97,0.58c1.99,0.36,4,0.73,6.01,1.09c2.03,0.31,4.02,0.89,6.03,1.44
							l3.01,0.86l1.51,0.43l1.47,0.56c1.97,0.76,3.95,1.52,5.93,2.28c1.98,0.79,3.83,1.84,5.75,2.79l2.86,1.46
							c0.94,0.5,1.82,1.13,2.73,1.69l5.42,3.45c6.79,5.17,13.3,10.79,18.49,17.3c1.33,1.6,2.68,3.18,3.96,4.77
							c1.16,1.7,2.31,3.38,3.44,5.05c1.11,1.69,2.32,3.3,3.33,5.01c0.96,1.73,1.91,3.45,2.86,5.16c0.94,1.7,1.86,3.4,2.78,5.08
							c0.78,1.73,1.54,3.45,2.3,5.16c1.46,3.42,3.09,6.68,4.13,10.06c1.14,3.32,2.25,6.56,3.32,9.69c0.88,3.18,1.63,6.27,2.41,9.23
							c0.71,2.96,1.6,5.74,2,8.5c0.48,2.72,0.92,5.3,1.35,7.74c0.39,2.44,0.89,4.68,1.1,6.8c0.21,2.11,0.4,4.06,0.58,5.82
							c0.37,3.5,0.54,6.27,0.71,8.15c0.13,1.88,0.2,2.88,0.2,2.88s-0.33-0.95-0.96-2.73c-0.59-1.79-1.53-4.4-2.56-7.73
							c-0.53-1.67-1.12-3.5-1.76-5.51c-0.71-1.97-1.47-4.11-2.29-6.39c-1.68-4.54-3.37-9.7-5.71-15.13
							c-1.13-2.73-2.25-5.58-3.5-8.48c-1.35-2.86-2.76-5.81-4.19-8.83c-1.33-3.07-3.1-6.01-4.76-9.06
							c-0.83-1.54-1.67-3.08-2.52-4.64c-0.95-1.49-1.92-2.98-2.89-4.49c-0.97-1.51-1.94-3.03-2.92-4.56c-1-1.52-2.17-2.92-3.25-4.39
							c-1.1-1.46-2.21-2.92-3.33-4.4c-1.22-1.37-2.44-2.75-3.67-4.14c-4.83-5.63-10.53-10.46-16.43-14.9l-4.65-3.02
							c-0.78-0.49-1.52-1.05-2.33-1.48l-2.45-1.27l-2.44-1.28c-0.82-0.41-1.59-0.92-2.45-1.23c-1.69-0.71-3.38-1.42-5.05-2.13
							c-6.83-2.48-13.8-4.49-20.82-5.37c-6.98-0.92-13.88-1.4-20.47-1.08c-6.58,0.22-12.87,0.77-18.64,1.71
							c-11.56,1.78-21.13,4.43-27.79,6.43c-3.3,1.07-5.95,1.88-7.7,2.54C247.73,84.28,246.79,84.62,246.79,84.62z"/>
					</g>
					<g>
						<path class="st12" d="M241.96,103.98c0,0,2.93-2.49,8.7-6c2.89-1.73,6.46-3.77,10.74-5.79c4.29-1.96,9.22-4.09,14.84-5.8
							c5.61-1.74,11.85-3.3,18.65-4.08c6.77-0.83,14.11-1.12,21.65-0.13c7.52,0.9,15.35,2.73,22.7,6.09l2.79,1.18
							c0.91,0.45,1.79,0.95,2.68,1.44c1.78,0.97,3.6,1.92,5.33,2.99c3.31,2.37,6.83,4.51,9.81,7.3c1.53,1.35,3.1,2.65,4.56,4.05
							l4.15,4.41l2.06,2.2c0.66,0.75,1.23,1.57,1.84,2.35c1.21,1.58,2.41,3.15,3.6,4.73c1.26,1.53,2.22,3.23,3.28,4.86
							c1.02,1.65,2.04,3.29,3.05,4.92l0.76,1.22l0.65,1.26c0.43,0.84,0.86,1.68,1.29,2.51c0.85,1.68,1.69,3.34,2.51,5
							c0.87,1.64,1.55,3.33,2.23,5c0.67,1.68,1.35,3.32,2,4.96c0.63,1.65,1.36,3.24,1.88,4.88c0.52,1.63,1.04,3.26,1.54,4.85
							c0.49,1.59,0.98,3.16,1.46,4.71c0.47,1.55,1,3.06,1.31,4.6c0.71,3.04,1.39,5.99,2.05,8.81c0.32,1.41,0.62,2.79,0.92,4.14
							c0.23,1.37,0.45,2.7,0.66,3.99c0.4,2.6,0.78,5.06,1.14,7.38c0.79,4.6,1.01,8.7,1.29,12.04c0.29,3.33,0.4,5.97,0.53,7.76
							c0.09,1.78,0.14,2.74,0.14,2.74s-0.31-0.92-0.87-2.62c-0.53-1.71-1.38-4.2-2.32-7.4c-0.96-3.18-2.07-7.05-3.62-11.4
							c-0.73-2.18-1.51-4.51-2.33-6.95c-0.39-1.22-0.81-2.48-1.23-3.76c-0.49-1.25-0.98-2.55-1.49-3.86
							c-0.99-2.63-2.02-5.36-3.08-8.2c-1.04-2.83-2.41-5.63-3.64-8.57c-0.63-1.47-1.26-2.95-1.9-4.46c-0.63-1.5-1.46-2.93-2.18-4.43
							c-0.75-1.48-1.49-2.99-2.25-4.5c-0.74-1.53-1.48-3.07-2.4-4.51c-0.87-1.47-1.74-2.96-2.63-4.46l-1.3-2.26l-0.66-1.13
							l-0.74-1.08c-0.99-1.43-1.99-2.87-3-4.32c-1.01-1.45-1.91-2.97-3.08-4.3c-1.11-1.37-2.23-2.74-3.35-4.12
							c-0.57-0.68-1.1-1.39-1.69-2.05l-1.84-1.9l-3.67-3.83c-1.28-1.21-2.67-2.3-3.98-3.46c-2.55-2.47-5.56-4.27-8.35-6.36
							c-1.47-0.92-3-1.73-4.48-2.63c-0.75-0.43-1.49-0.89-2.24-1.3l-2.35-1.07c-1.58-0.68-3.08-1.51-4.7-2.07
							c-1.6-0.58-3.2-1.15-4.8-1.72c-1.6-0.57-3.26-0.88-4.87-1.33c-0.81-0.21-1.62-0.42-2.43-0.64c-0.82-0.14-1.64-0.29-2.45-0.43
							c-1.64-0.25-3.25-0.67-4.88-0.79c-1.64-0.17-3.26-0.34-4.86-0.51c-1.6-0.14-3.21-0.13-4.8-0.2c-1.58-0.09-3.16-0.06-4.72-0.01
							c-6.23,0.05-12.16,0.78-17.62,1.67c-5.48,0.83-10.45,2.08-14.87,3.22c-4.4,1.2-8.24,2.37-11.37,3.44
							c-3.11,1.11-5.59,1.97-7.24,2.66C242.84,103.62,241.96,103.98,241.96,103.98z"/>
					</g>
				</g>
				<g>
					<path class="st16" d="M493.39,223.62c0,4.99-4.07,9.04-9.09,9.04l0,0c-5.02,0-9.08-4.05-9.08-9.04l0,0
						c0-4.99,4.07-9.04,9.08-9.04l0,0C489.31,214.59,493.39,218.63,493.39,223.62L493.39,223.62z"/>
					<g>
						<path class="st17" d="M411.99,197.63c0-12.76,10.4-23.1,23.22-23.1l0,0c12.83,0,23.23,10.34,23.23,23.1v51.98
							c0,12.76-10.4,23.1-23.23,23.1l0,0c-12.82,0-23.22-10.34-23.22-23.1V197.63z"/>
						<path class="st12" d="M439.98,198.87c10.04,12.42,11.41,26.83,8.55,42.07c-2.44,13.06-12.18,26.24-25.8,28.14
							c3.61,2.3,7.88,3.64,12.48,3.64c12.83,0,23.23-10.34,23.23-23.1v-51.98c0-12.76-10.4-23.1-23.23-23.1
							c-10.02,0-18.54,6.33-21.79,15.19C423.23,188.51,433.46,190.81,439.98,198.87z"/>
						<path class="st7" d="M420.21,197.63c0-1.33,1.08-2.41,2.42-2.41l0,0c1.34,0,2.42,1.08,2.42,2.41v58.72
							c0,1.34-1.08,2.41-2.42,2.41l0,0c-1.33,0-2.42-1.07-2.42-2.41V197.63z"/>
					</g>
					<g>
						<path class="st9" d="M455.31,188.22v70.79c15.6-4.29,27.05-18.51,27.05-35.39S470.91,192.52,455.31,188.22z"/>
						<path class="st6" d="M471.38,237.15c-11.83-7.58-14.86-18.3-16.07-31.18v53.05c10.09-2.78,18.41-9.72,23.06-18.83
							C475.91,239.53,473.55,238.54,471.38,237.15z"/>
					</g>
					<path class="st18" d="M466.84,242.87c0,0,13.35,121.37-114.36,117.92"/>
					<path class="st19" d="M357.08,361.27c0,5.85-4.77,10.59-10.64,10.59h-14.29c-5.88,0-10.64-4.74-10.64-10.59l0,0
						c0-5.84,4.76-10.59,10.64-10.59h14.29C352.31,350.68,357.08,355.42,357.08,361.27L357.08,361.27z"/>
					<path class="st16" d="M128.44,223.62c0,4.99,4.07,9.04,9.09,9.04l0,0c5.02,0,9.09-4.05,9.09-9.04l0,0
						c0-4.99-4.07-9.04-9.09-9.04l0,0C132.51,214.59,128.44,218.63,128.44,223.62L128.44,223.62z"/>
					<g>
						<path class="st17" d="M209.84,197.63c0-12.76-10.4-23.1-23.22-23.1l0,0c-12.83,0-23.23,10.34-23.23,23.1v51.98
							c0,12.76,10.4,23.1,23.23,23.1l0,0c12.83,0,23.22-10.34,23.22-23.1V197.63z"/>
						<path class="st12" d="M181.85,198.87c-10.04,12.42-11.4,26.83-8.54,42.07c2.45,13.06,12.18,26.24,25.8,28.14
							c-3.61,2.3-7.88,3.64-12.48,3.64c-12.83,0-23.23-10.34-23.23-23.1v-51.98c0-12.76,10.4-23.1,23.23-23.1
							c10.02,0,18.54,6.33,21.79,15.19C198.59,188.51,188.37,190.81,181.85,198.87z"/>
						<path class="st7" d="M201.61,197.63c0-1.33-1.08-2.41-2.42-2.41l0,0c-1.34,0-2.42,1.08-2.42,2.41v58.72
							c0,1.34,1.08,2.41,2.42,2.41l0,0c1.33,0,2.42-1.07,2.42-2.41V197.63z"/>
					</g>
					<g>
						<g>
							<path class="st9" d="M166.52,188.22v70.79c-15.6-4.29-27.06-18.51-27.06-35.39S150.92,192.52,166.52,188.22z"/>
							<path class="st9" d="M150.45,237.15c11.83-7.58,14.85-18.3,16.07-31.18v53.05c-10.09-2.78-18.42-9.72-23.06-18.83
								C145.92,239.53,148.28,238.54,150.45,237.15z"/>
						</g>
					</g>
				</g>
			</g>
		</g>
	</g>
</g>
</svg>

<?xml version="1.0" encoding="utf-8"?>
<!-- Generator: Adobe Illustrator 26.0.0, SVG Export Plug-In . SVG Version: 6.00 Build 0)  -->
<svg version="1.1" id="Capa_1" xmlns="http://www.w3.org/2000/svg" xmlns:xlink="http://www.w3.org/1999/xlink" x="0px" y="0px"
	 viewBox="0 0 600.27 586.27" style="enable-background:new 0 0 600.27 586.27;" xml:space="preserve">
<style type="text/css">
	.st0{display:none;}
	.st1{clip-path:url(#SVGID_00000115504700069145664810000004342144624158226868_);}
	.st2{fill:none;stroke:#2C343F;stroke-width:3.1716;stroke-linecap:round;stroke-linejoin:round;stroke-miterlimit:10;}
	.st3{fill:#140600;}
	.st4{fill:#F6C6AD;}
	.st5{fill:#FFFFFF;}
	.st6{fill:#D9D9D9;}
	.st7{opacity:0.5;fill:#FFFFFF;}
	.st8{fill:#ECECEC;}
	.st9{fill:#A5E72E;}
	.st10{fill:#00B0C2;}
	.st11{fill:#7BDA36;}
	.st12{fill:#C6C6C5;}
	.st13{fill:#DDDDDD;}
	.st14{fill:#422918;}
	.st15{fill:#1F140D;}
	.st16{fill:#10BF18;}
	.st17{fill:#464F5B;}
	.st18{fill:none;stroke:#2C343F;stroke-width:3.6191;stroke-linecap:round;stroke-linejoin:round;stroke-miterlimit:10;}
	.st19{fill:#232A33;}
</style>
<g id="Capa_1_00000135652129289774188050000011373787437841889458_" class="st0">
</g>
<g>
	<defs>
		<circle id="SVGID_1_" cx="300.14" cy="293.14" r="286.63"/>
	</defs>
	<use xlink:href="#SVGID_1_"  style="overflow:visible;fill:#34CEFF;"/>
	<clipPath id="SVGID_00000119108424230927889880000009698244642193136530_">
		<use xlink:href="#SVGID_1_"  style="overflow:visible;"/>
	</clipPath>
	<g style="clip-path:url(#SVGID_00000119108424230927889880000009698244642193136530_);">
		<g>
			<g>
				<path class="st2" d="M487.22,219.29v-13.13c0,0-0.54-9.99-9.09-15.99c0,0-25.97-16.65-26.93-79.46c0,0-1.93-87.3-103.54-87.3
					h-47.34"/>
				<path class="st2" d="M134.6,219.29v-13.13c0,0,0.54-9.99,9.09-15.99c0,0,25.96-16.65,26.93-79.46c0,0,1.93-87.3,103.55-87.3
					h47.34"/>
			</g>
			<g>
				<g>
					<rect x="232.58" y="210.88" class="st3" width="188.95" height="223.1"/>
					<path class="st4" d="M425.69,412.34c-50.89-5.75-75.96-20.79-80.24-23.58h-90.62c-4.29,2.8-29.35,17.83-80.25,23.58
						c0,0-96.99,3.63-94.28,179.48c0,0,72.99,32.93,219.83,32.65c146.84,0.27,219.83-32.65,219.83-32.65
						C522.69,415.97,425.69,412.34,425.69,412.34z"/>
					<path class="st5" d="M174.58,412.34c0,0-96.99,3.63-94.28,179.48c0,0,72.99,32.93,219.83,32.65
						c146.84,0.27,219.83-32.65,219.83-32.65c2.72-175.85-94.28-179.48-94.28-179.48s-94.46-6.7-125.56,33.51
						C300.13,445.85,270.17,396.39,174.58,412.34z"/>
					<g>
						<rect x="253.87" y="339.86" class="st4" width="92.53" height="67.3"/>
						<path class="st6" d="M253.87,359.05v0.02c1.02,1.2,2.05,2.4,3.15,3.53c2.89,2.98,5.89,5.86,9.12,8.47
							c0.11,0.08,0.19,0.15,0.29,0.24c1.04,0.76,2.09,1.5,3.17,2.23c1.64,1.1,3.28,2.2,4.99,3.21c2.46,1.46,4.96,2.89,7.54,4.15
							c0.82,0.32,3.25,1.33,3.99,1.58c2.49,0.84,4.98,1.68,7.53,2.35c2.62,0.68,5.23,1.36,7.89,1.87c-0.69-0.13,7,1.15,5.15,0.99
							c6.23,0.69,12.5,1.16,18.78,1.04c2.69-0.05,5.39-0.1,8.07-0.31c0.86-0.07,4.87-0.67,5.27-0.67c2.57-0.55,5.09-1.27,7.59-2.07
							v-45.81h-92.53v18.99C254.14,359.25,254.2,359.4,253.87,359.05z"/>
					</g>
					<path class="st4" d="M405.41,218.2c0,79.7-47.13,144.31-105.28,144.31c-58.14,0-105.27-64.61-105.27-144.31
						c0-79.7,47.13-129.64,105.27-129.64C358.28,88.56,405.41,138.51,405.41,218.2z"/>
					<path class="st7" d="M244.02,153.1c0.03-0.19,0.07-0.37,0.1-0.55c14.88-17.47,35.4-27.19,58.06-27.19
						c45.42,0,82.24,39.02,82.24,101.29c0,41.5-16.37,77.74-40.73,97.3C343.7,323.95,206.05,307.55,244.02,153.1z"/>
					<path class="st8" d="M283.74,330.77c-35.87-22.61-55.42-60.98-60.39-102.27c-4.67-38.79,5.21-81.71,29.82-112.38
						c8.53-10.63,19.45-19.64,31.57-26.35c-50.84,8.02-89.88,55.9-89.88,128.43c0,79.7,47.13,144.31,105.27,144.31
						c16.89,0,32.85-5.46,46.99-15.15C325.1,348.11,303.02,342.93,283.74,330.77z"/>
					<path class="st9" d="M250.4,391.37c-9.83,5.35-34.18,16.27-75.82,20.97c0,0-96.99,3.63-94.28,179.48
						c0,0,72.99,32.93,219.83,32.65c146.84,0.27,219.83-32.65,219.83-32.65c2.72-175.85-94.28-179.48-94.28-179.48
						c-41.65-4.7-66-15.63-75.82-20.98c0,0,51.72,115.25-49.74,218.97C300.13,610.34,202.08,509.28,250.4,391.37z"/>
					<path class="st10" d="M219.46,474.99c0.04,0.23,0.08,0.45,0.13,0.68c0.37,1.79,0.75,3.59,1.15,5.38
						c0.26-0.12,0.52-0.23,0.79-0.34C220.82,478.83,220.13,476.91,219.46,474.99z"/>
					<path class="st11" d="M425.69,412.34c-41.65-4.7-66-15.63-75.82-20.98c0,0,51.72,115.25-49.74,218.97
						c0,0-98.06-101.05-49.74-218.97c-9.83,5.35-34.18,16.27-75.82,20.97c0,0-16.05,41.98,17.87,79.29c0,0,14.69-7.91,22.61-5.65
						l-28.1,20.63c0,0,6.62,79.99,93.67,117.85h44.09c0,0,75.47-36.74,88.61-133.97c0,0-7.03-7.93-28.7-14.69
						c0,0,13.3-4.53,28.7-2.26C413.32,473.54,441.88,458.54,425.69,412.34z"/>
					<path class="st10" d="M300.13,624.47"/>
					<rect x="298.64" y="445.85" class="st12" width="2.99" height="162.23"/>
					<path class="st13" d="M250.4,391.37c0,0-42.14,15.19-21.78,67.48c0,0,4.75-55.43,72.1,6.22c0,0,4.49-46.63-21.23-56.53
						C279.49,408.54,250.4,404.16,250.4,391.37z"/>
					<path class="st13" d="M350.84,391.37c0,0,37.93,14.4,16.83,61.27c0,0-20.91-48.61-66.95,12.43c0,0-6.54-51.3,21.02-56.53
						C321.74,408.54,350.84,404.16,350.84,391.37z"/>
					<path class="st14" d="M447.26,388.74c0,0-2.03-135.63-8.84-214.77c0,0,0.01-0.84-0.03-2.33c0.67-25.04-9.89-55.28-21.27-72.9
						c-8.31-12.87-17.89-25.06-29.23-35.42c-39.55-36.08-129.74-38.23-155.3,17.7C208.53,98,112.86,183.11,226.15,402.25
						l27.72-11.07l1.58-42.29c0,0-109.19-114.71-8.99-220.38c0,0,0.12-0.08,0.33-0.24c-0.11,0.1-0.22,0.18-0.33,0.24
						c17.57-9.01,40.66-11.08,60.03-8.16c53.71,8.14,65.37,67.04,88.51,106.78c3.91,6.72,8.13,14.33,12.38,18.77
						c3.76,32.8,5.67,74.53,4.13,127.6c0,0,1.66,63.62-45.44,116.19C366.07,489.7,470.39,524.37,447.26,388.74z"/>
					<g>
						<path class="st15" d="M246.79,128.27c1.77-1.12,3.63-2.1,5.52-3.04c1.88-0.94,3.82-1.76,5.78-2.55
							c1.94-0.85,3.95-1.48,5.95-2.18c2.02-0.64,4.06-1.18,6.11-1.78c2.06-0.51,4.15-0.94,6.24-1.38c2.1-0.39,4.22-0.62,6.34-0.94
							c2.12-0.37,4.27-0.34,6.42-0.53c1.07-0.07,2.15-0.14,3.23-0.14l3.23,0.11c2.16,0.11,4.33,0.04,6.48,0.39l6.47,0.81
							c2.13,0.44,4.24,1,6.36,1.5c2.15,0.44,4.2,1.19,6.25,1.94c2.04,0.78,4.16,1.39,6.14,2.32c1.96,0.96,3.94,1.9,5.89,2.9
							c2.01,0.91,3.8,2.17,5.62,3.37l5.48,3.62l0.25,0.17l0.34,0.36c1.84,1.99,3.56,3.89,5.27,5.89c1.69,1.99,3.42,3.95,4.98,6.04
							c1.58,2.08,3.24,4.09,4.75,6.23l4.56,6.38c1.45,2.19,2.86,4.41,4.26,6.64c1.44,2.19,2.65,4.56,3.88,6.91
							c1.18,2.39,2.6,4.59,3.52,7.15c1.01,2.5,2.06,4.98,3.01,7.48l2.74,6.82l2.97,7.04l3.01,7.02c1.01,2.34,2.05,4.67,3.11,6.98
							l3.2,6.94c1.09,2.3,2.22,4.58,3.39,6.84c1.13,2.29,2.37,4.51,3.63,6.72l2,3.26l2.22,3.14c-0.95-0.86-1.93-1.71-2.85-2.63
							l-2.64-2.86c-1.65-2-3.28-4.02-4.81-6.12c-1.54-2.09-2.98-4.24-4.41-6.4c-1.42-2.16-2.84-4.33-4.15-6.56
							c-2.64-4.44-5.25-8.91-7.68-13.47l-3.57-6.87l-1.75-3.46l-0.86-1.74l-0.43-0.88l-0.22-0.44l-0.1-0.22l-0.05-0.11l-0.03-0.05
							l-0.12-0.29c-1.09-2.2-2.08-4.42-3.11-6.62c-0.9-2.24-2.39-4.31-3.58-6.46c-1.25-2.13-2.47-4.28-3.95-6.3l-4.17-6.22
							l-4.47-6.05c-1.47-2.03-3.12-3.94-4.67-5.92c-1.56-1.98-3.2-3.87-4.79-5.83c-1.59-1.92-3.28-3.85-4.88-5.65l0.59,0.53
							l-4.89-3.33c-1.63-1.12-3.23-2.29-5.02-3.12c-1.74-0.91-3.46-1.89-5.19-2.83c-1.74-0.93-3.62-1.55-5.43-2.34
							c-1.82-0.77-3.64-1.55-5.56-2.03l-5.7-1.69l-5.85-1.2c-1.94-0.49-3.95-0.56-5.93-0.83l-2.99-0.34c-1-0.09-2.01-0.06-3.01-0.13
							c-2.01-0.04-4.03-0.3-6.05-0.17c-2.02,0.08-4.05,0.07-6.08,0.22l-6.09,0.55c-2.02,0.3-4.06,0.54-6.08,0.88
							c-2,0.43-4.06,0.7-6.06,1.2c-2.02,0.43-4.02,0.94-6.03,1.5C250.75,126.97,248.77,127.59,246.79,128.27z"/>
					</g>
					<path class="st12" d="M228.45,94.34c0,0-115.75,85.51,9.88,303.05l15.54-6.21C253.87,391.19,126.37,225.54,228.45,94.34z"/>
					<g>
						<path class="st12" d="M246.79,84.62c0,0,3.19-2.49,9.36-5.97c3.1-1.7,6.9-3.77,11.46-5.71c2.26-1.02,4.72-1.98,7.32-3.01
							c2.63-0.95,5.4-1.92,8.37-2.77c2.93-0.93,6.06-1.68,9.3-2.48c1.62-0.41,3.3-0.65,5-0.98c1.7-0.32,3.43-0.63,5.21-0.82
							c7.07-1.04,14.71-1.22,22.59-0.69c1.98,0.19,3.97,0.39,5.97,0.58c1.99,0.36,4,0.73,6.01,1.09c2.03,0.31,4.02,0.89,6.03,1.44
							l3.01,0.86l1.51,0.43l1.47,0.56c1.97,0.76,3.95,1.52,5.93,2.28c1.98,0.79,3.83,1.84,5.75,2.79l2.86,1.46
							c0.94,0.5,1.82,1.13,2.73,1.69l5.42,3.45c6.79,5.17,13.3,10.79,18.49,17.3c1.33,1.6,2.68,3.18,3.96,4.77
							c1.16,1.7,2.31,3.38,3.44,5.05c1.11,1.69,2.32,3.3,3.33,5.01c0.96,1.73,1.91,3.45,2.86,5.16c0.94,1.7,1.86,3.4,2.78,5.08
							c0.78,1.73,1.54,3.45,2.3,5.16c1.46,3.42,3.09,6.68,4.13,10.06c1.14,3.32,2.25,6.56,3.32,9.69c0.88,3.18,1.63,6.27,2.41,9.23
							c0.71,2.96,1.6,5.74,2,8.5c0.48,2.72,0.92,5.3,1.35,7.74c0.39,2.44,0.89,4.68,1.1,6.8c0.21,2.11,0.4,4.06,0.58,5.82
							c0.37,3.5,0.54,6.27,0.71,8.15c0.13,1.88,0.2,2.88,0.2,2.88s-0.33-0.95-0.96-2.73c-0.59-1.79-1.53-4.4-2.56-7.73
							c-0.53-1.67-1.12-3.5-1.76-5.51c-0.71-1.97-1.47-4.11-2.29-6.39c-1.68-4.54-3.37-9.7-5.71-15.13
							c-1.13-2.73-2.25-5.58-3.5-8.48c-1.35-2.86-2.76-5.81-4.19-8.83c-1.33-3.07-3.1-6.01-4.76-9.06
							c-0.83-1.54-1.67-3.08-2.52-4.64c-0.95-1.49-1.92-2.98-2.89-4.49c-0.97-1.51-1.94-3.03-2.92-4.56c-1-1.52-2.17-2.92-3.25-4.39
							c-1.1-1.46-2.21-2.92-3.33-4.4c-1.22-1.37-2.44-2.75-3.67-4.14c-4.83-5.63-10.53-10.46-16.43-14.9l-4.65-3.02
							c-0.78-0.49-1.52-1.05-2.33-1.48l-2.45-1.27l-2.44-1.28c-0.82-0.41-1.59-0.92-2.45-1.23c-1.69-0.71-3.38-1.42-5.05-2.13
							c-6.83-2.48-13.8-4.49-20.82-5.37c-6.98-0.92-13.88-1.4-20.47-1.08c-6.58,0.22-12.87,0.77-18.64,1.71
							c-11.56,1.78-21.13,4.43-27.79,6.43c-3.3,1.07-5.95,1.88-7.7,2.54C247.73,84.28,246.79,84.62,246.79,84.62z"/>
					</g>
					<g>
						<path class="st12" d="M241.96,103.98c0,0,2.93-2.49,8.7-6c2.89-1.73,6.46-3.77,10.74-5.79c4.29-1.96,9.22-4.09,14.84-5.8
							c5.61-1.74,11.85-3.3,18.65-4.08c6.77-0.83,14.11-1.12,21.65-0.13c7.52,0.9,15.35,2.73,22.7,6.09l2.79,1.18
							c0.91,0.45,1.79,0.95,2.68,1.44c1.78,0.97,3.6,1.92,5.33,2.99c3.31,2.37,6.83,4.51,9.81,7.3c1.53,1.35,3.1,2.65,4.56,4.05
							l4.15,4.41l2.06,2.2c0.66,0.75,1.23,1.57,1.84,2.35c1.21,1.58,2.41,3.15,3.6,4.73c1.26,1.53,2.22,3.23,3.28,4.86
							c1.02,1.65,2.04,3.29,3.05,4.92l0.76,1.22l0.65,1.26c0.43,0.84,0.86,1.68,1.29,2.51c0.85,1.68,1.69,3.34,2.51,5
							c0.87,1.64,1.55,3.33,2.23,5c0.67,1.68,1.35,3.32,2,4.96c0.63,1.65,1.36,3.24,1.88,4.88c0.52,1.63,1.04,3.26,1.54,4.85
							c0.49,1.59,0.98,3.16,1.46,4.71c0.47,1.55,1,3.06,1.31,4.6c0.71,3.04,1.39,5.99,2.05,8.81c0.32,1.41,0.62,2.79,0.92,4.14
							c0.23,1.37,0.45,2.7,0.66,3.99c0.4,2.6,0.78,5.06,1.14,7.38c0.79,4.6,1.01,8.7,1.29,12.04c0.29,3.33,0.4,5.97,0.53,7.76
							c0.09,1.78,0.14,2.74,0.14,2.74s-0.31-0.92-0.87-2.62c-0.53-1.71-1.38-4.2-2.32-7.4c-0.96-3.18-2.07-7.05-3.62-11.4
							c-0.73-2.18-1.51-4.51-2.33-6.95c-0.39-1.22-0.81-2.48-1.23-3.76c-0.49-1.25-0.98-2.55-1.49-3.86
							c-0.99-2.63-2.02-5.36-3.08-8.2c-1.04-2.83-2.41-5.63-3.64-8.57c-0.63-1.47-1.26-2.95-1.9-4.46c-0.63-1.5-1.46-2.93-2.18-4.43
							c-0.75-1.48-1.49-2.99-2.25-4.5c-0.74-1.53-1.48-3.07-2.4-4.51c-0.87-1.47-1.74-2.96-2.63-4.46l-1.3-2.26l-0.66-1.13
							l-0.74-1.08c-0.99-1.43-1.99-2.87-3-4.32c-1.01-1.45-1.91-2.97-3.08-4.3c-1.11-1.37-2.23-2.74-3.35-4.12
							c-0.57-0.68-1.1-1.39-1.69-2.05l-1.84-1.9l-3.67-3.83c-1.28-1.21-2.67-2.3-3.98-3.46c-2.55-2.47-5.56-4.27-8.35-6.36
							c-1.47-0.92-3-1.73-4.48-2.63c-0.75-0.43-1.49-0.89-2.24-1.3l-2.35-1.07c-1.58-0.68-3.08-1.51-4.7-2.07
							c-1.6-0.58-3.2-1.15-4.8-1.72c-1.6-0.57-3.26-0.88-4.87-1.33c-0.81-0.21-1.62-0.42-2.43-0.64c-0.82-0.14-1.64-0.29-2.45-0.43
							c-1.64-0.25-3.25-0.67-4.88-0.79c-1.64-0.17-3.26-0.34-4.86-0.51c-1.6-0.14-3.21-0.13-4.8-0.2c-1.58-0.09-3.16-0.06-4.72-0.01
							c-6.23,0.05-12.16,0.78-17.62,1.67c-5.48,0.83-10.45,2.08-14.87,3.22c-4.4,1.2-8.24,2.37-11.37,3.44
							c-3.11,1.11-5.59,1.97-7.24,2.66C242.84,103.62,241.96,103.98,241.96,103.98z"/>
					</g>
				</g>
				<g>
					<path class="st16" d="M493.39,223.62c0,4.99-4.07,9.04-9.09,9.04l0,0c-5.02,0-9.08-4.05-9.08-9.04l0,0
						c0-4.99,4.07-9.04,9.08-9.04l0,0C489.31,214.59,493.39,218.63,493.39,223.62L493.39,223.62z"/>
					<g>
						<path class="st17" d="M411.99,197.63c0-12.76,10.4-23.1,23.22-23.1l0,0c12.83,0,23.23,10.34,23.23,23.1v51.98
							c0,12.76-10.4,23.1-23.23,23.1l0,0c-12.82,0-23.22-10.34-23.22-23.1V197.63z"/>
						<path class="st12" d="M439.98,198.87c10.04,12.42,11.41,26.83,8.55,42.07c-2.44,13.06-12.18,26.24-25.8,28.14
							c3.61,2.3,7.88,3.64,12.48,3.64c12.83,0,23.23-10.34,23.23-23.1v-51.98c0-12.76-10.4-23.1-23.23-23.1
							c-10.02,0-18.54,6.33-21.79,15.19C423.23,188.51,433.46,190.81,439.98,198.87z"/>
						<path class="st7" d="M420.21,197.63c0-1.33,1.08-2.41,2.42-2.41l0,0c1.34,0,2.42,1.08,2.42,2.41v58.72
							c0,1.34-1.08,2.41-2.42,2.41l0,0c-1.33,0-2.42-1.07-2.42-2.41V197.63z"/>
					</g>
					<g>
						<path class="st9" d="M455.31,188.22v70.79c15.6-4.29,27.05-18.51,27.05-35.39S470.91,192.52,455.31,188.22z"/>
						<path class="st6" d="M471.38,237.15c-11.83-7.58-14.86-18.3-16.07-31.18v53.05c10.09-2.78,18.41-9.72,23.06-18.83
							C475.91,239.53,473.55,238.54,471.38,237.15z"/>
					</g>
					<path class="st18" d="M466.84,242.87c0,0,13.35,121.37-114.36,117.92"/>
					<path class="st19" d="M357.08,361.27c0,5.85-4.77,10.59-10.64,10.59h-14.29c-5.88,0-10.64-4.74-10.64-10.59l0,0
						c0-5.84,4.76-10.59,10.64-10.59h14.29C352.31,350.68,357.08,355.42,357.08,361.27L357.08,361.27z"/>
					<path class="st16" d="M128.44,223.62c0,4.99,4.07,9.04,9.09,9.04l0,0c5.02,0,9.09-4.05,9.09-9.04l0,0
						c0-4.99-4.07-9.04-9.09-9.04l0,0C132.51,214.59,128.44,218.63,128.44,223.62L128.44,223.62z"/>
					<g>
						<path class="st17" d="M209.84,197.63c0-12.76-10.4-23.1-23.22-23.1l0,0c-12.83,0-23.23,10.34-23.23,23.1v51.98
							c0,12.76,10.4,23.1,23.23,23.1l0,0c12.83,0,23.22-10.34,23.22-23.1V197.63z"/>
						<path class="st12" d="M181.85,198.87c-10.04,12.42-11.4,26.83-8.54,42.07c2.45,13.06,12.18,26.24,25.8,28.14
							c-3.61,2.3-7.88,3.64-12.48,3.64c-12.83,0-23.23-10.34-23.23-23.1v-51.98c0-12.76,10.4-23.1,23.23-23.1
							c10.02,0,18.54,6.33,21.79,15.19C198.59,188.51,188.37,190.81,181.85,198.87z"/>
						<path class="st7" d="M201.61,197.63c0-1.33-1.08-2.41-2.42-2.41l0,0c-1.34,0-2.42,1.08-2.42,2.41v58.72
							c0,1.34,1.08,2.41,2.42,2.41l0,0c1.33,0,2.42-1.07,2.42-2.41V197.63z"/>
					</g>
					<g>
						<g>
							<path class="st9" d="M166.52,188.22v70.79c-15.6-4.29-27.06-18.51-27.06-35.39S150.92,192.52,166.52,188.22z"/>
							<path class="st9" d="M150.45,237.15c11.83-7.58,14.85-18.3,16.07-31.18v53.05c-10.09-2.78-18.42-9.72-23.06-18.83
								C145.92,239.53,148.28,238.54,150.45,237.15z"/>
						</g>
					</g>
				</g>
			</g>
		</g>
	</g>
</g>
</svg>

