<svg width="192" height="192" viewBox="0 0 192 192" fill="none" xmlns="http://www.w3.org/2000/svg">
<g clip-path="url(#clip0_611_31867)">
<rect width="192" height="192" fill="white"/>
<g filter="url(#filter0_d_611_31867)">
<path d="M172.946 96.4821C172.946 75.4021 164.836 55.1855 150.401 40.2797C135.966 25.374 116.387 17 95.9728 17C75.5584 17 55.9801 25.374 41.5449 40.2797C27.1097 55.1855 19 75.4021 19 96.4821C19.002 115.41 25.5433 133.715 37.4477 148.108C49.352 162.501 65.8383 172.036 83.9423 174.999V119.491H64.3513V96.5174H83.8967V79.0078C83.8967 59.0843 95.3913 48.0863 112.975 48.0863C118.747 48.169 124.506 48.6846 130.206 49.6289V69.1991H120.502C110.934 69.1991 107.958 75.3222 107.958 81.6101V96.5174H129.351L125.93 119.491H108.003V175.034C126.112 172.068 142.602 162.527 154.506 148.127C166.411 133.728 172.949 115.415 172.946 96.4821Z" fill="url(#paint0_linear_611_31867)"/>
<path d="M125.93 119.491L129.351 96.5178H108.004V81.5752C108.004 75.2873 110.98 69.1642 120.548 69.1642H130.252V49.5939C124.552 48.6496 118.794 48.1341 113.022 48.0514C95.4375 48.0514 83.9429 59.0494 83.9429 78.9729V96.4825H64.3519V119.491H83.8973V175.034C87.8771 175.678 91.8995 176.001 95.9278 176C99.9562 176.001 103.979 175.678 107.958 175.034V119.491H125.93Z" fill="white"/>
</g>
</g>
<defs>
<filter id="filter0_d_611_31867" x="10.5646" y="17" width="170.816" height="175.871" filterUnits="userSpaceOnUse" color-interpolation-filters="sRGB">
<feFlood flood-opacity="0" result="BackgroundImageFix"/>
<feColorMatrix in="SourceAlpha" type="matrix" values="0 0 0 0 0 0 0 0 0 0 0 0 0 0 0 0 0 0 127 0" result="hardAlpha"/>
<feOffset dy="8.43538"/>
<feGaussianBlur stdDeviation="4.21769"/>
<feComposite in2="hardAlpha" operator="out"/>
<feColorMatrix type="matrix" values="0 0 0 0 0 0 0 0 0 0 0 0 0 0 0 0 0 0 0.25 0"/>
<feBlend mode="normal" in2="BackgroundImageFix" result="effect1_dropShadow_611_31867"/>
<feBlend mode="normal" in="SourceGraphic" in2="effect1_dropShadow_611_31867" result="shape"/>
</filter>
<linearGradient id="paint0_linear_611_31867" x1="95.9728" y1="17" x2="95.9728" y2="175.034" gradientUnits="userSpaceOnUse">
<stop stop-color="#00BEFA"/>
<stop offset="0.0001" stop-color="#34CEFF"/>
<stop offset="1" stop-color="#00C0FC"/>
</linearGradient>
<clipPath id="clip0_611_31867">
<rect width="192" height="192" fill="white"/>
</clipPath>
</defs>
</svg>
