<svg width="192" height="192" viewBox="0 0 192 192" fill="none" xmlns="http://www.w3.org/2000/svg">
<g clip-path="url(#clip0_611_31868)">
<rect width="192" height="192" fill="white"/>
<g filter="url(#filter0_d_611_31868)">
<path d="M95.9728 175.964C138.484 175.964 172.946 140.379 172.946 96.4821C172.946 52.5853 138.484 17 95.9728 17C53.4619 17 19 52.5853 19 96.4821C19 140.379 53.4619 175.964 95.9728 175.964Z" fill="url(#paint0_linear_611_31868)"/>
<path d="M95.9739 54.663C108.917 54.663 110.445 54.663 115.554 54.9574C118.626 54.9941 121.669 55.5756 124.551 56.6766C126.656 57.4808 128.561 58.7601 130.127 60.4211C131.737 62.0369 132.976 64.0044 133.753 66.1791C134.817 69.1554 135.38 72.2975 135.418 75.4697C135.658 80.7449 135.703 82.3346 135.703 95.6876C135.703 109.041 135.703 110.642 135.418 115.917C135.38 119.089 134.817 122.232 133.753 125.208C132.976 127.383 131.737 129.35 130.127 130.966C128.558 132.623 126.654 133.902 124.551 134.71C121.669 135.811 118.626 136.393 115.554 136.429C110.445 136.665 108.917 136.724 95.9739 136.724C83.0311 136.724 81.503 136.665 76.3943 136.429C73.3185 136.391 70.2716 135.809 67.3856 134.71C65.2858 133.901 63.3855 132.623 61.8208 130.966C60.2111 129.35 58.9719 127.383 58.1945 125.208C57.1255 122.233 56.5585 119.09 56.5182 115.917C56.2901 110.642 56.2445 109.052 56.2445 95.6876C56.2445 82.3228 56.2445 80.7449 56.5182 75.4697C56.5585 72.2966 57.1255 69.1542 58.1945 66.1791C58.9719 64.0044 60.2111 62.0369 61.8208 60.4211C63.3824 58.7603 65.2836 57.481 67.3856 56.6766C70.2679 55.5783 73.3108 54.9969 76.3829 54.9574C81.503 54.7219 83.0311 54.663 95.9739 54.663ZM95.9739 45.6433C82.8144 45.6433 81.1495 45.7022 75.9952 45.9495C71.9718 46.0429 67.9928 46.8391 64.2269 48.3045C60.9883 49.5517 58.0562 51.5218 55.6401 54.0743C53.1757 56.5754 51.269 59.6012 50.0525 62.941C48.6345 66.8258 47.8634 70.9305 47.7718 75.0811C47.5438 80.4152 47.4868 82.1462 47.4868 95.7111C47.4868 109.276 47.4868 111.019 47.7718 116.353C47.8634 120.504 48.6345 124.608 50.0525 128.493C51.269 131.833 53.1757 134.859 55.6401 137.36C58.0593 139.908 60.9905 141.878 64.2269 143.13C67.9928 144.595 71.9718 145.391 75.9952 145.485C81.1609 145.732 82.8372 145.779 95.9739 145.779C109.111 145.779 110.798 145.779 115.953 145.485C119.976 145.39 123.955 144.594 127.721 143.13C130.955 141.872 133.885 139.903 136.308 137.36C138.775 134.852 140.682 131.818 141.895 128.47C143.319 124.586 144.09 120.481 144.176 116.329C144.415 110.983 144.473 109.264 144.473 95.6876C144.473 82.1109 144.415 80.3799 144.176 75.0576C144.09 70.9064 143.319 66.8007 141.895 62.9174C140.679 59.5777 138.772 56.5519 136.308 54.0507C133.888 51.5033 130.957 49.534 127.721 48.2809C123.955 46.8169 119.976 46.0207 115.953 45.9259C110.787 45.6786 109.111 45.6198 95.9739 45.6198V45.6433Z" fill="white"/>
<path d="M95.9715 70.776C89.3713 70.776 83.0412 73.4826 78.3731 78.3007C73.7049 83.1188 71.081 89.6539 71.0779 96.4693C71.0779 103.287 73.7007 109.825 78.3691 114.646C83.0376 119.466 89.3693 122.174 95.9715 122.174C99.24 122.174 102.477 121.509 105.496 120.218C108.516 118.926 111.259 117.032 113.57 114.645C115.881 112.258 117.713 109.424 118.963 106.305C120.213 103.187 120.855 99.8444 120.854 96.4693C120.854 93.0952 120.21 89.7542 118.96 86.6369C117.709 83.5197 115.876 80.6872 113.566 78.3014C108.9 73.483 102.571 70.776 95.9715 70.776ZM95.9715 113.166C93.8491 113.168 91.7473 112.737 89.7861 111.9C87.825 111.062 86.043 109.833 84.5423 108.283C83.0415 106.733 81.8513 104.893 81.0398 102.868C80.2283 100.843 79.8114 98.6727 79.8129 96.4811C79.8114 94.2895 80.2283 92.1191 81.0398 90.0941C81.8513 88.069 83.0415 86.229 84.5423 84.6793C86.043 83.1296 87.825 81.9007 89.7861 81.0627C91.7473 80.2247 93.8491 79.7942 95.9715 79.7957C100.255 79.7957 104.363 81.552 107.393 84.6786C110.423 87.8052 112.127 92.0461 112.13 96.4693C112.13 100.895 110.428 105.139 107.397 108.268C104.367 111.397 100.257 113.155 95.9715 113.155V113.166Z" fill="white"/>
<path d="M121.848 74.9863C125.06 74.9863 127.664 72.2977 127.664 68.981C127.664 65.6644 125.06 62.9757 121.848 62.9757C118.636 62.9757 116.032 65.6644 116.032 68.981C116.032 72.2977 118.636 74.9863 121.848 74.9863Z" fill="white"/>
</g>
</g>
<defs>
<filter id="filter0_d_611_31868" x="10.5646" y="17" width="170.816" height="175.835" filterUnits="userSpaceOnUse" color-interpolation-filters="sRGB">
<feFlood flood-opacity="0" result="BackgroundImageFix"/>
<feColorMatrix in="SourceAlpha" type="matrix" values="0 0 0 0 0 0 0 0 0 0 0 0 0 0 0 0 0 0 127 0" result="hardAlpha"/>
<feOffset dy="8.43538"/>
<feGaussianBlur stdDeviation="4.21769"/>
<feComposite in2="hardAlpha" operator="out"/>
<feColorMatrix type="matrix" values="0 0 0 0 0 0 0 0 0 0 0 0 0 0 0 0 0 0 0.25 0"/>
<feBlend mode="normal" in2="BackgroundImageFix" result="effect1_dropShadow_611_31868"/>
<feBlend mode="normal" in="SourceGraphic" in2="effect1_dropShadow_611_31868" result="shape"/>
</filter>
<linearGradient id="paint0_linear_611_31868" x1="95.9728" y1="17" x2="95.9728" y2="175.964" gradientUnits="userSpaceOnUse">
<stop stop-color="#00BEFA"/>
<stop offset="0.0001" stop-color="#34CEFF"/>
<stop offset="1" stop-color="#00C0FC"/>
</linearGradient>
<clipPath id="clip0_611_31868">
<rect width="192" height="192" fill="white"/>
</clipPath>
</defs>
</svg>
