<svg width="192" height="192" viewBox="0 0 192 192" fill="none" xmlns="http://www.w3.org/2000/svg">
<rect width="192" height="192" fill="white"/>
<g filter="url(#filter0_d_611_31872)">
<path d="M95.9184 169.619C137.847 169.619 171.837 136.573 171.837 95.8096C171.837 55.0457 137.847 22 95.9184 22C53.9898 22 20 55.0457 20 95.8096C20 136.573 53.9898 169.619 95.9184 169.619Z" fill="url(#paint0_linear_611_31872)"/>
<path fill-rule="evenodd" clip-rule="evenodd" d="M132.374 61.2486C124.276 53.1948 113.501 48.3376 102.059 47.5827C90.6175 46.8279 79.2893 50.2269 70.1873 57.146C61.0853 64.0651 54.8308 74.032 52.5901 85.188C50.3495 96.344 52.2757 107.928 58.0095 117.779L51.3122 142.055L76.3469 135.542C83.2789 139.28 91.0425 141.24 98.9322 141.245C108.276 141.245 117.409 138.498 125.179 133.35C132.948 128.201 139.004 120.883 142.581 112.321C146.158 103.759 147.096 94.3368 145.275 85.246C143.454 76.1553 138.957 67.8042 132.352 61.2486H132.374ZM98.9433 133.331C91.909 133.315 85.0081 131.425 78.9618 127.859L77.5275 127.016L62.6656 130.88L66.5714 116.553L65.6887 115.086C61.0629 107.77 59.0193 99.1361 59.8793 90.542C60.7393 81.9479 64.454 73.881 70.4395 67.6095C76.425 61.338 84.3418 57.2175 92.9454 55.8958C101.549 54.5741 110.351 56.1261 117.969 60.3079C125.586 64.4897 131.587 71.0642 135.027 78.9976C138.467 86.9311 139.152 95.7738 136.974 104.135C134.796 112.497 129.878 119.904 122.994 125.19C116.11 130.477 107.649 133.345 98.9433 133.342V133.331ZM120.491 104.142C119.311 103.551 113.507 100.727 112.426 100.333C111.345 99.9387 110.55 99.7526 109.767 100.924C108.984 102.095 106.722 104.733 106.027 105.51C105.332 106.287 104.648 106.385 103.467 105.805C99.9904 104.424 96.7804 102.458 93.9783 99.9934C91.3782 97.6308 89.1471 94.8975 87.3582 91.8833C86.6631 90.7122 87.281 90.0774 87.8768 89.4973C88.4726 88.9172 89.0573 88.1292 89.6421 87.4397C90.1326 86.8651 90.5377 86.2238 90.8448 85.5353C90.9997 85.2105 91.0716 84.853 91.0543 84.4941C91.037 84.1353 90.9309 83.7862 90.7454 83.4776C90.4475 82.8976 88.0864 77.1296 87.1044 74.7874C86.1225 72.4452 85.1736 72.8174 84.4565 72.7845C83.7393 72.7517 82.978 72.7845 82.1836 72.7845C81.586 72.8013 80.9982 72.9403 80.4571 73.1926C79.9161 73.445 79.4333 73.8053 79.039 74.2511C77.706 75.5054 76.6507 77.0211 75.9403 78.7018C75.2299 80.3826 74.8799 82.1917 74.9126 84.0139C74.9126 89.7709 79.1384 95.3419 79.7342 96.119C80.33 96.8961 88.0533 108.727 99.8921 113.795C102.091 114.734 104.337 115.56 106.622 116.268C109.032 116.993 111.578 117.151 114.059 116.728C116.332 116.389 121.043 113.893 122.025 111.168C123.007 108.443 123.018 106.09 122.72 105.597C122.422 105.105 121.672 104.754 120.491 104.142Z" fill="white"/>
</g>
<defs>
<filter id="filter0_d_611_31872" x="11.5646" y="22" width="168.708" height="164.49" filterUnits="userSpaceOnUse" color-interpolation-filters="sRGB">
<feFlood flood-opacity="0" result="BackgroundImageFix"/>
<feColorMatrix in="SourceAlpha" type="matrix" values="0 0 0 0 0 0 0 0 0 0 0 0 0 0 0 0 0 0 127 0" result="hardAlpha"/>
<feOffset dy="8.43538"/>
<feGaussianBlur stdDeviation="4.21769"/>
<feComposite in2="hardAlpha" operator="out"/>
<feColorMatrix type="matrix" values="0 0 0 0 0 0 0 0 0 0 0 0 0 0 0 0 0 0 0.25 0"/>
<feBlend mode="normal" in2="BackgroundImageFix" result="effect1_dropShadow_611_31872"/>
<feBlend mode="normal" in="SourceGraphic" in2="effect1_dropShadow_611_31872" result="shape"/>
</filter>
<linearGradient id="paint0_linear_611_31872" x1="95.9184" y1="22" x2="95.9184" y2="169.619" gradientUnits="userSpaceOnUse">
<stop stop-color="#00BEFA"/>
<stop offset="0.0001" stop-color="#34CEFF"/>
<stop offset="1" stop-color="#00C0FC"/>
</linearGradient>
</defs>
</svg>
